<?xml version="1.0" encoding="UTF-8"?>
<svg version="1.1" xmlns="http://www.w3.org/2000/svg" width="2500" height="1664">
<path d="M0 0 C825 0 1650 0 2500 0 C2500 549.12 2500 1098.24 2500 1664 C1675 1664 850 1664 0 1664 C0 1114.88 0 565.76 0 0 Z " fill="#000000" transform="translate(0,0)"/>
<path d="M0 0 C6.32931797 3.5282581 9.90248624 12.84995222 13.171875 19.0390625 C15.08484557 22.46983601 17.18423064 25.73930024 19.3359375 29.0234375 C22.56709675 33.96019009 25.47985165 38.96194201 28.2421875 44.1796875 C30.13578298 47.55845591 32.21591889 50.78373077 34.3359375 54.0234375 C37.53656928 58.91697088 40.43358991 63.86844597 43.171875 69.0390625 C45.68903864 73.55341232 48.4728369 77.89342972 51.23413086 82.26123047 C53.36264631 85.63744093 55.4431624 89.00732148 57.3359375 92.5234375 C59.6452039 96.81207509 62.23878996 100.90564125 64.8359375 105.0234375 C67.84859037 109.80002046 70.75161492 114.58112413 73.4296875 119.5546875 C75.45642398 123.11273599 77.65177288 126.56042867 79.8359375 130.0234375 C82.84859037 134.80002046 85.75161492 139.58112413 88.4296875 144.5546875 C90.87157704 148.84156025 93.54910576 152.98402751 96.18139648 157.15576172 C98.35143074 160.60722289 100.46740498 164.05550591 102.3984375 167.6484375 C104.78063314 172.06176836 107.51563137 176.23321686 110.24707031 180.43432617 C113.13498776 184.89241415 115.92047668 189.40330254 118.6484375 193.9609375 C119.00905273 194.56309082 119.36966797 195.16524414 119.74121094 195.78564453 C121.50133521 198.73961354 123.22761748 201.70866293 124.91796875 204.703125 C126.42478457 207.31166563 127.97612284 209.75573369 129.7109375 212.2109375 C132.0735379 215.69547628 133.99778919 219.23646702 135.8359375 223.0234375 C138.0391108 227.55600756 140.47195514 231.67705675 143.3359375 235.81640625 C146.57335369 240.57979205 149.40757467 245.60563583 152.3359375 250.5625 C154.73859072 254.6044635 157.18281461 258.5779816 159.8359375 262.4609375 C162.62586314 266.58770252 164.98810755 270.87567212 167.3359375 275.265625 C169.69545271 279.60369203 172.27014773 283.80533285 174.8359375 288.0234375 C175.79502315 289.62715449 176.7533474 291.23132706 177.7109375 292.8359375 C179.97074358 296.60618391 182.27133307 300.34910624 184.5859375 304.0859375 C188.6610244 310.69038869 192.59235192 317.37489725 196.515625 324.0703125 C199.25401981 328.74260195 202.04014524 333.38533126 204.8359375 338.0234375 C205.30257812 338.80460937 205.76921875 339.58578125 206.25 340.390625 C211.21748775 348.70519005 216.28348682 356.95898443 221.4296875 365.1640625 C221.87086914 365.86772949 222.31205078 366.57139648 222.76660156 367.29638672 C223.62136087 368.65824417 224.4774003 370.01929934 225.33496094 371.37939453 C227.94609176 375.53750919 230.42005449 379.74880368 232.8359375 384.0234375 C236.62663606 390.57494164 240.45803923 397.09970347 244.37890625 403.57421875 C245.52121096 405.49439316 246.63197928 407.43333418 247.73046875 409.37890625 C249.80135924 413.01581892 252.04575878 416.5217308 254.3359375 420.0234375 C257.33563335 424.61000317 260.14586136 429.24773553 262.8359375 434.0234375 C266.67112375 440.65183018 270.5580355 447.24634679 274.51171875 453.8046875 C275.60329812 455.63364645 276.66173378 457.48234426 277.7109375 459.3359375 C281.83559238 466.60564172 286.24480795 473.74799531 290.9609375 480.6484375 C293.06023848 483.74954968 294.89145046 486.90395093 296.6484375 490.2109375 C299.00664733 494.63644938 301.59206463 498.83278495 304.3359375 503.0234375 C307.56693996 507.96030256 310.47984188 512.96192355 313.2421875 518.1796875 C315.13577775 521.55844657 317.21582767 524.78379773 319.3359375 528.0234375 C322.56681365 532.96038687 325.47983554 537.96191157 328.2421875 543.1796875 C330.13578241 546.55845489 332.21590833 549.78373925 334.3359375 553.0234375 C336.94527498 557.01264616 339.42835446 560.9868857 341.6484375 565.2109375 C344.90417731 571.365749 348.66938592 577.1846054 352.43481445 583.03588867 C355.33370583 587.5601236 358.04175632 592.13472751 360.61889648 596.84912109 C362.56279773 600.32201668 364.69894281 603.66719623 366.8359375 607.0234375 C369.85068675 611.79862426 372.7517 616.58128214 375.4296875 621.5546875 C377.45642398 625.11273599 379.65177288 628.56042867 381.8359375 632.0234375 C384.84859037 636.80002046 387.75161492 641.58112413 390.4296875 646.5546875 C392.45642398 650.11273599 394.65177288 653.56042867 396.8359375 657.0234375 C399.84859037 661.80002046 402.75161492 666.58112413 405.4296875 671.5546875 C407.45642398 675.11273599 409.65177288 678.56042867 411.8359375 682.0234375 C414.84859037 686.80002046 417.75161492 691.58112413 420.4296875 696.5546875 C422.87027659 700.83927723 425.54644385 704.97945039 428.17700195 709.14916992 C430.80501137 713.32966889 433.28979632 717.54675123 435.6328125 721.89453125 C437.0839708 724.46232759 438.67132679 726.9221316 440.2734375 729.3984375 C442.58106891 732.97650684 444.7169883 736.5744987 446.7109375 740.3359375 C449.0488241 744.71791211 451.61930777 748.87196813 454.3359375 753.0234375 C457.61121159 758.02860988 460.57726292 763.10324309 463.3828125 768.390625 C465.41143328 772.06613684 467.70315395 775.55189285 469.984375 779.07421875 C472.0330599 782.33741939 473.94536902 785.66742837 475.8359375 789.0234375 C478.22683751 793.2650797 480.69010972 797.43443094 483.3359375 801.5234375 C486.35842273 806.19455104 489.124671 810.98774252 491.85546875 815.83203125 C494.43955303 820.39159309 497.21612904 824.79305475 500.0625 829.19140625 C502.04269799 832.35361669 503.88444504 835.58381348 505.7109375 838.8359375 C508.4675956 843.74122677 511.38053037 848.50242598 514.4609375 853.2109375 C517.64709074 858.08139196 520.51946815 863.03677317 523.2421875 868.1796875 C525.13577775 871.55844657 527.21582767 874.78379773 529.3359375 878.0234375 C532.56681365 882.96038687 535.47983554 887.96191157 538.2421875 893.1796875 C540.13577832 896.55844759 542.2158382 899.78378926 544.3359375 903.0234375 C547.61122731 908.0285957 550.57726462 913.1032463 553.3828125 918.390625 C555.41370295 922.0702491 557.70821013 925.55979699 559.9921875 929.0859375 C561.99845879 932.28236972 563.86450015 935.54600455 565.7109375 938.8359375 C568.46743221 943.74131249 571.38053756 948.50243696 574.4609375 953.2109375 C577.64709074 958.08139196 580.51946815 963.03677317 583.2421875 968.1796875 C585.13577775 971.55844657 587.21582767 974.78379773 589.3359375 978.0234375 C592.56681365 982.96038687 595.47983554 987.96191157 598.2421875 993.1796875 C600.13577775 996.55844657 602.21582767 999.78379773 604.3359375 1003.0234375 C607.56681365 1007.96038687 610.47983554 1012.96191157 613.2421875 1018.1796875 C615.13577775 1021.55844657 617.21582767 1024.78379773 619.3359375 1028.0234375 C622.56681365 1032.96038687 625.47983554 1037.96191157 628.2421875 1043.1796875 C630.1357789 1046.55844862 632.21584873 1049.78378079 634.3359375 1053.0234375 C637.64355275 1058.07834243 640.6614255 1063.20061869 643.484375 1068.546875 C645.14925004 1071.59754198 647.01207381 1074.48613039 648.953125 1077.3671875 C649.8359375 1079.0234375 649.8359375 1079.0234375 649.8359375 1082.0234375 C486.1559375 1082.0234375 322.4759375 1082.0234375 153.8359375 1082.0234375 C151.1959375 1077.4034375 148.5559375 1072.7834375 145.8359375 1068.0234375 C143.55969821 1064.60719689 143.55969821 1064.60719689 141.25390625 1061.2109375 C139.7006882 1058.81478844 138.36159386 1056.35827059 137.0234375 1053.8359375 C134.66522767 1049.41042562 132.07981037 1045.21409005 129.3359375 1041.0234375 C126.10493504 1036.08657244 123.19203312 1031.08495145 120.4296875 1025.8671875 C118.53609144 1022.48841807 116.45594556 1019.26315272 114.3359375 1016.0234375 C111.08672776 1011.05528233 108.13474113 1006.02317201 105.34765625 1000.77734375 C103.07048742 996.62901293 100.54836158 992.64079646 98.046875 988.625 C95.52608814 984.55190297 93.12266219 980.41169673 90.7109375 976.2734375 C87.69040928 971.09571454 84.57714728 966.04928071 81.18359375 961.10546875 C79.65603978 958.74550855 78.34200273 956.31857666 77.0234375 953.8359375 C74.66521753 949.41040659 72.07967897 945.21418951 69.3359375 941.0234375 C66.08660189 936.0553673 63.13473458 931.02315967 60.34765625 925.77734375 C58.07048742 921.62901293 55.54836158 917.64079646 53.046875 913.625 C50.52608814 909.55190297 48.12266219 905.41169673 45.7109375 901.2734375 C42.69132704 896.09728774 39.57796459 891.05301331 36.1875 886.109375 C34.06739596 882.83730692 32.29032138 879.38953896 30.453125 875.953125 C28.13292353 871.74986146 25.58482809 867.69933848 23.046875 863.625 C20.52608814 859.55190297 18.12266219 855.41169673 15.7109375 851.2734375 C12.69132704 846.09728774 9.57796459 841.05301331 6.1875 836.109375 C4.0608176 832.82715418 2.27914863 829.36754012 0.43359375 825.921875 C-1.78928583 821.88916926 -4.22530945 818.00358974 -6.65625 814.09375 C-9.90087006 808.85327056 -13.05898465 803.56069706 -16.2265625 798.2734375 C-16.87165771 797.19690918 -17.51675293 796.12038086 -18.18139648 795.01123047 C-19.51321617 792.78820295 -20.84483836 790.5650571 -22.17626953 788.34179688 C-25.33589068 783.0672242 -28.50012447 777.79542141 -31.6640625 772.5234375 C-32.91408646 770.44011854 -34.16408641 768.35678518 -35.4140625 766.2734375 C-36.0328125 765.2421875 -36.6515625 764.2109375 -37.2890625 763.1484375 C-94.1640625 668.35677083 -151.0390625 573.56510417 -207.9140625 478.7734375 C-208.53297363 477.7419458 -209.15188477 476.7104541 -209.78955078 475.64770508 C-211.03801894 473.56687061 -212.28639153 471.48597879 -213.53466797 469.4050293 C-216.68231905 464.1579861 -219.83168735 458.91198748 -222.984375 453.66796875 C-224.25267114 451.55733191 -225.52090077 449.4466551 -226.7890625 447.3359375 C-227.71295776 445.79921387 -227.71295776 445.79921387 -228.65551758 444.23144531 C-231.74709591 439.08140095 -234.81864904 433.92082938 -237.85546875 428.73828125 C-238.44440918 427.73434326 -239.03334961 426.73040527 -239.64013672 425.69604492 C-240.74821682 423.80377289 -241.85293271 421.90952513 -242.95361328 420.01293945 C-245.45608128 415.73907523 -248.04717591 411.8808371 -251.1640625 408.0234375 C-252.13024811 406.19458617 -253.04566998 404.3381978 -253.9140625 402.4609375 C-256.00459789 398.15935968 -258.27082394 394.21639249 -260.9765625 390.2734375 C-264.11103982 385.70282134 -266.91988333 381.05351943 -269.6015625 376.2109375 C-273.51498727 369.14981224 -277.59976622 362.21704841 -281.78125 355.31201172 C-284.62945005 350.5982004 -287.4569326 345.87191432 -290.2890625 341.1484375 C-291.59367771 338.97391496 -292.89836617 336.79943637 -294.203125 334.625 C-331.9140625 271.7734375 -331.9140625 271.7734375 -333.79150391 268.64428711 C-335.03327002 266.57473089 -336.27513098 264.50523157 -337.51708984 262.43579102 C-340.42402811 257.59178522 -343.33006045 252.74724445 -346.23260498 247.90060425 C-347.25704654 246.19010462 -348.28184209 244.47981703 -349.30664062 242.76953125 C-350.58980643 240.62797177 -351.87239654 238.48606721 -353.15429688 236.34375 C-353.73759766 235.37050781 -354.32089844 234.39726562 -354.921875 233.39453125 C-355.46875977 232.47526855 -356.01564453 231.55600586 -356.57910156 230.60888672 C-357.60279479 228.93899897 -358.66527483 227.29200833 -359.77246094 225.67626953 C-360.24973633 224.97743652 -360.72701172 224.27860352 -361.21875 223.55859375 C-361.64397949 222.96570557 -362.06920898 222.37281738 -362.50732422 221.76196289 C-363.1640625 220.0234375 -363.1640625 220.0234375 -362.4699707 217.93017578 C-360.45214243 214.98397297 -357.52332908 213.55235552 -354.4765625 211.8359375 C-353.1144152 211.04456016 -351.75244096 210.25288487 -350.390625 209.4609375 C-349.34116699 208.85765625 -349.34116699 208.85765625 -348.27050781 208.2421875 C-344.93927364 206.31479749 -341.6469324 204.32380192 -338.3515625 202.3359375 C-337.0952504 201.58170081 -335.83874554 200.82778511 -334.58203125 200.07421875 C-333.45410156 199.39746094 -332.32617188 198.72070312 -331.1640625 198.0234375 C-267.5703125 159.8671875 -267.5703125 159.8671875 -265.63574219 158.70654297 C-264.32377826 157.91929963 -263.01192884 157.13186545 -261.70019531 156.34423828 C-258.9251074 154.67820096 -256.14886657 153.01439635 -253.3671875 151.359375 C-249.10276399 148.81973424 -244.89592536 146.21676358 -240.7265625 143.5234375 C-237.16870609 141.24122709 -233.58472983 139.12997207 -229.8515625 137.1484375 C-224.83253015 134.4706656 -220.11085063 131.4518825 -215.35620117 128.34033203 C-211.02107498 125.52294448 -206.57806588 123.03673341 -202.0078125 120.6171875 C-198.62905343 118.72359725 -195.40370227 116.64354733 -192.1640625 114.5234375 C-187.22711313 111.29256135 -182.22558843 108.37953946 -177.0078125 105.6171875 C-173.62905343 103.72359725 -170.40370227 101.64354733 -167.1640625 99.5234375 C-163.07404597 96.84681761 -158.98876165 94.31298411 -154.6640625 92.0234375 C-149.0041454 89.02552889 -143.68343993 85.57648353 -138.328125 82.07421875 C-135.63575003 80.3291609 -132.91905733 78.6663267 -130.1640625 77.0234375 C-129.39707031 76.56324219 -128.63007812 76.10304688 -127.83984375 75.62890625 C-113.61458333 67.09375 -99.38932292 58.55859375 -85.1640625 50.0234375 C-84.29716797 49.50225342 -83.43027344 48.98106934 -82.53710938 48.4440918 C-79.92748277 46.88180608 -77.29701442 45.35856491 -74.6640625 43.8359375 C-70.50224111 41.41240712 -66.38080954 38.93832772 -62.2890625 36.3984375 C-55.32181844 32.08498047 -48.26692284 27.92426902 -41.20556641 23.76708984 C-35.95534452 20.67599687 -30.71814161 17.56498151 -25.49682617 14.42529297 C-23.37286779 13.14891735 -21.24588833 11.87782009 -19.1171875 10.609375 C-18.49972656 10.24070312 -17.88226562 9.87203125 -17.24609375 9.4921875 C-16.00978126 8.75409049 -14.77278518 8.01713747 -13.53515625 7.28125 C-12.92285156 6.91515625 -12.31054688 6.5490625 -11.6796875 6.171875 C-11.08865234 5.81963867 -10.49761719 5.46740234 -9.88867188 5.10449219 C-8.1950577 4.04286654 -6.57594049 2.86527048 -4.9609375 1.6875 C-2.1640625 0.0234375 -2.1640625 0.0234375 0 0 Z " fill="#FEFEFE" transform="translate(1498.1640625,0.9765625)"/>
<path d="M0 0 C2.37109375 0.1484375 2.37109375 0.1484375 5 1 C6.66015625 3.0390625 6.66015625 3.0390625 8.0625 5.625 C8.52785156 6.46289062 8.99320313 7.30078125 9.47265625 8.1640625 C10.22869141 9.56785156 10.22869141 9.56785156 11 11 C13.67726907 15.782801 16.50054913 20.41380891 19.5 25 C22.49961468 29.58644155 25.31305489 34.22260065 28 39 C31.68796893 45.46964866 35.49411012 51.82646245 39.5625 58.0625 C42.76622624 62.97532566 45.66250261 67.97361604 48.40625 73.15625 C50.29984025 76.53500907 52.37989017 79.76036023 54.5 83 C57.73087615 87.93694937 60.64389804 92.93847407 63.40625 98.15625 C65.29984025 101.53500907 67.37989017 104.76036023 69.5 108 C72.73087615 112.93694937 75.64389804 117.93847407 78.40625 123.15625 C80.29984491 126.53501739 82.37997083 129.76030175 84.5 133 C87.10933748 136.98920866 89.59241696 140.9634482 91.8125 145.1875 C95.06823981 151.3423115 98.83344842 157.1611679 102.59887695 163.01245117 C105.49776833 167.5366861 108.20581882 172.11129001 110.78295898 176.82568359 C112.72686023 180.29857918 114.86300531 183.64375873 117 187 C120.01474925 191.77518676 122.9157625 196.55784464 125.59375 201.53125 C127.62048648 205.08929849 129.81583538 208.53699117 132 212 C135.01265287 216.77658296 137.91567742 221.55768663 140.59375 226.53125 C142.62048751 230.08930029 144.81586507 233.53697055 147 237 C150.05206416 241.83992362 153.00553204 246.68485655 155.72265625 251.72265625 C158.02416121 255.82595102 160.54658958 259.79750012 163.03515625 263.7890625 C164.72540007 266.55125022 166.34207628 269.34355708 167.93920898 272.16015625 C169.89043221 275.54437219 171.95255239 278.8609536 174 282.1875 C179.51064617 291.17430631 184.94091655 300.20770622 190.35498047 309.25292969 C193.33731387 314.23322287 196.325359 319.21008947 199.3125 324.1875 C200.58986777 326.31639184 201.86721135 328.44529819 203.14453125 330.57421875 C203.78213379 331.63688965 204.41973633 332.69956055 205.07666016 333.79443359 C233.66015625 381.43359375 233.66015625 381.43359375 235.34033203 384.24560547 C236.46825932 386.11752009 237.61043047 387.98091027 238.76513672 389.83642578 C239.31572754 390.72700684 239.86631836 391.61758789 240.43359375 392.53515625 C240.92786865 393.32414307 241.42214355 394.11312988 241.93139648 394.92602539 C243 397 243 397 243 400 C243.66 400 244.32 400 245 400 C245.268125 400.51046875 245.53625 401.0209375 245.8125 401.546875 C248.29370465 406.15016257 250.97727483 410.50000306 253.9375 414.8125 C256.64864375 418.80813695 258.97298229 422.77276925 261.0625 427.125 C263.37475014 431.93698003 266.06702635 436.11711474 269.203125 440.42578125 C272.89064478 445.70855415 275.97769297 451.37964616 279.1171875 457 C280.89773806 460.17850348 282.80602407 463.19363302 284.875 466.1875 C287.22584479 469.65190285 289.12373505 473.1648689 290.9375 476.9375 C293.30049889 481.80503156 296.02495762 486.05931678 299.203125 490.42578125 C302.89064478 495.70855415 305.97769297 501.37964616 309.1171875 507 C310.89773806 510.17850348 312.80602407 513.19363302 314.875 516.1875 C317.22584479 519.65190285 319.12373505 523.1648689 320.9375 526.9375 C322.81246134 530.79914318 324.78347476 534.28278798 327.3125 537.75 C330.83141995 542.57882628 333.69830017 547.65150805 336.57324219 552.87670898 C339.6967072 558.5344704 343.06913811 563.99240366 346.56640625 569.42578125 C348 572 348 572 348 575 C348.66 575 349.32 575 350 575 C351.42041016 576.97192383 351.42041016 576.97192383 353.0390625 579.70703125 C353.61914062 580.68607422 354.19921875 581.66511719 354.796875 582.67382812 C355.40015625 583.70958984 356.0034375 584.74535156 356.625 585.8125 C357.23601563 586.83666016 357.84703125 587.86082031 358.4765625 588.91601562 C363 596.61494664 363 596.61494664 363 600 C363.66 600 364.32 600 365 600 C366.42041016 601.97192383 366.42041016 601.97192383 368.0390625 604.70703125 C368.61914062 605.68607422 369.19921875 606.66511719 369.796875 607.67382812 C370.40015625 608.70958984 371.0034375 609.74535156 371.625 610.8125 C372.23601563 611.83666016 372.84703125 612.86082031 373.4765625 613.91601562 C378 621.61494664 378 621.61494664 378 625 C378.66 625 379.32 625 380 625 C380.29132812 625.53367187 380.58265625 626.06734375 380.8828125 626.6171875 C385.18284998 634.43297889 389.73810066 642.05904159 394.5625 649.5625 C396.58765855 652.72350835 398.52912076 655.8844807 400.3125 659.1875 C402.69281605 663.57645485 405.3372735 667.77924359 408 672 C411.15754568 677.0066841 414.23256469 682.01946417 417.0390625 687.234375 C417.90908245 688.83294825 418.85680883 690.3886212 419.8125 691.9375 C421 694 421 694 421 696 C455.32 696 489.64 696 525 696 C525.01689942 750.04191527 525.03303133 804.0838305 525.04234314 858.12574768 C525.0424812 858.92493081 525.04261925 859.72411394 525.04276149 860.54751474 C525.04575404 877.91377043 525.04852428 895.28002616 525.05106533 912.64628192 C525.05231272 921.16205579 525.05360927 929.67782966 525.05493164 938.19360352 C525.05512778 939.46477109 525.05512778 939.46477109 525.05532788 940.76161881 C525.05959313 968.25515608 525.06710735 995.7486913 525.07629722 1023.24222733 C525.08571987 1051.48330272 525.09188313 1079.72437699 525.09391499 1107.96545393 C525.09420317 1111.94961092 525.0945288 1115.9337679 525.09487724 1119.91792488 C525.09494467 1120.70210378 525.09501209 1121.48628268 525.09508156 1122.29422458 C525.09626564 1134.94347864 525.10091004 1147.59272921 525.10683203 1160.24198184 C525.11270497 1172.94291203 525.11497158 1185.64383874 525.11350138 1198.34477025 C525.11280534 1205.23282923 525.11374864 1212.12087881 525.11920547 1219.00893593 C525.12403719 1225.30351564 525.12434016 1231.59807801 525.12089889 1237.89265848 C525.12047298 1240.18068303 525.12177062 1242.46870862 525.12488318 1244.75673109 C525.1288433 1247.84514354 525.12676581 1250.93349177 525.12304783 1254.02190304 C525.12567484 1254.92893989 525.12830186 1255.83597674 525.13100848 1256.77049956 C525.1141458 1262.8858542 525.1141458 1262.8858542 524 1264 C522.65927183 1264.09527037 521.31357497 1264.1218877 519.96946716 1264.12025452 C519.10143463 1264.12162918 518.2334021 1264.12300385 517.33906555 1264.12442017 C516.37953476 1264.12082489 515.42000397 1264.11722961 514.43139648 1264.11352539 C513.42663269 1264.11367142 512.4218689 1264.11381744 511.38665771 1264.1139679 C508.04811483 1264.1132683 504.70962695 1264.10547374 501.37109375 1264.09765625 C499.06323782 1264.09579224 496.75538149 1264.09436826 494.44752502 1264.09336853 C488.35982174 1264.08954204 482.27214214 1264.07971065 476.18444824 1264.06866455 C469.97778646 1264.05845323 463.77112087 1264.05387151 457.56445312 1264.04882812 C445.37628998 1264.0380885 433.18815066 1264.02049064 421 1264 C421 1257.07 421 1250.14 421 1243 C417.535 1244.7325 417.535 1244.7325 414 1246.5 C413.21246338 1246.89195557 412.42492676 1247.28391113 411.61352539 1247.68774414 C408.1203985 1249.42712684 404.63780881 1251.18052129 401.18359375 1252.99609375 C360.84490018 1274.03524196 315.10815567 1281.96617847 270 1275 C268.97036133 1274.84724609 268.97036133 1274.84724609 267.91992188 1274.69140625 C259.28553202 1273.38536409 250.79493434 1271.56905659 242.3125 1269.5 C241.47477051 1269.29850342 240.63704102 1269.09700684 239.77392578 1268.8894043 C235.16338849 1267.72626389 231.22669901 1266.23332131 227 1264 C225.59584665 1263.56184266 224.17824551 1263.16427158 222.75 1262.8125 C217.5687295 1261.32988378 212.72769198 1259.24675215 207.8125 1257.0625 C207.05227539 1256.72645752 206.29205078 1256.39041504 205.50878906 1256.04418945 C199.17337438 1253.18938473 193.23802049 1249.93953646 187.5 1246 C184.92628259 1244.25679308 182.42046017 1242.6828933 179.6875 1241.1875 C168.13936455 1234.73334577 157.29198701 1225.35183878 148 1216 C146.71959989 1214.88278814 145.42865551 1213.77748583 144.125 1212.6875 C139.99703307 1209.09964089 136.49409431 1205.19740238 133 1201 C132.34644531 1200.24589844 131.69289063 1199.49179688 131.01953125 1198.71484375 C115.33277178 1180.22789771 103.35653429 1159.36052454 93.90893555 1137.11083984 C92.94577003 1134.87406061 91.9404232 1132.65883667 90.93359375 1130.44140625 C85.8733753 1119.06937277 83.18313938 1107.21853844 81.30419922 1094.96923828 C81.02198888 1093.14234536 80.71702348 1091.31900706 80.41015625 1089.49609375 C77.64320107 1072.71259187 77.78635032 1055.95875792 78 1039 C78.01087646 1037.67282959 78.01087646 1037.67282959 78.02197266 1036.31884766 C78.17892083 1023.45175769 80.80207465 1011.43206418 84 999 C84.29390625 997.84886719 84.5878125 996.69773437 84.890625 995.51171875 C85.55954479 992.99615337 86.26601682 990.49723013 87 988 C87.24492188 987.13375 87.48984375 986.2675 87.7421875 985.375 C89.17826843 980.40053411 90.8856547 975.73613346 93 971 C93.25136719 970.32195313 93.50273438 969.64390625 93.76171875 968.9453125 C96.76102582 960.88382653 100.87531113 953.43073377 104.97509766 945.88964844 C105.80963007 944.35099173 106.63134132 942.80538651 107.44921875 941.2578125 C110.0716642 936.36141933 113.09979642 931.86182034 116.3515625 927.359375 C118.01650871 925.04906196 118.01650871 925.04906196 119.33984375 922.67578125 C126.31680951 911.43055408 136.02285855 901.6940637 145.3125 892.375 C146.13548584 891.54669678 146.95847168 890.71839355 147.80639648 889.86499023 C152.92071622 884.80920202 158.22693989 880.28236383 164 876 C164.64880127 875.50773926 165.29760254 875.01547852 165.96606445 874.50830078 C173.05156611 869.14097109 180.06385744 864.04700217 188 860 C189.77229622 859.02348366 191.54303522 858.04413764 193.3125 857.0625 C215.358086 845.10712673 242.32130056 832.01235771 268 833 C268 832.34 268 831.68 268 831 C279.00826745 830.12729443 289.95898988 829.7596715 301 829.75 C301.80748688 829.74899292 302.61497375 829.74798584 303.44692993 829.74694824 C316.83482841 829.75817707 329.81102181 830.56206172 343 833 C343.75587402 833.12858398 344.51174805 833.25716797 345.29052734 833.38964844 C372.35292422 838.06563084 397.3891648 850.50809417 421 864 C421 808.89 421 753.78 421 697 C398.6017334 697.14924927 398.6017334 697.14924927 375.75097656 697.30151367 C343.81168472 697.50537602 311.87251116 697.68448121 279.93280029 697.80451965 C278.8885552 697.80845428 278.8885552 697.80845428 277.82321424 697.81246839 C262.69301013 697.86933618 247.56279407 697.92196927 232.43256016 697.97024126 C225.01249189 697.99394026 217.59242685 698.01857483 210.17236328 698.04370117 C209.43398526 698.04618559 208.69560723 698.04867002 207.93485412 698.05122972 C184.00987892 698.13216853 160.08575739 698.27486123 136.16129919 698.44964719 C111.57179304 698.62896516 86.98275912 698.74584554 62.39261019 698.78438481 C58.91794569 698.7898596 55.44328279 698.79604669 51.9686203 698.80266762 C51.28476989 698.80394865 50.60091948 698.80522969 49.89634633 698.80654955 C38.89624474 698.82898645 27.89760508 698.91706116 16.89809928 699.02980865 C5.83456359 699.14180715 -5.22786326 699.18282253 -16.29203013 699.15652617 C-22.28593632 699.14434903 -28.2755603 699.1630503 -34.26870537 699.26490402 C-39.75995916 699.35754592 -45.24406561 699.36196715 -50.73565224 699.297079 C-52.71850036 699.28906483 -54.70179853 699.31306574 -56.68376347 699.37278046 C-68.75398785 699.71521355 -68.75398785 699.71521355 -74 697 C-78.89001921 692.36536124 -81.89015803 686.42373136 -84.79787198 680.4245638 C-86.65566865 676.67758637 -88.83488161 673.13716828 -91 669.5625 C-91.80584777 668.18763821 -92.60951307 666.81149289 -93.41015625 665.43359375 C-96.39499026 660.31623439 -99.4081818 655.21614103 -102.4375 650.125 C-102.94603516 649.26205322 -103.45457031 648.39910645 -103.97851562 647.51000977 C-104.45869141 646.70490967 -104.93886719 645.89980957 -105.43359375 645.0703125 C-105.85697021 644.35633301 -106.28034668 643.64235352 -106.71655273 642.90673828 C-107.98739019 641.01873361 -109.39392703 639.60062034 -111 638 C-112.13529258 635.83900992 -113.21200621 633.64687463 -114.25 631.4375 C-116.8669481 626.00246183 -119.81916498 621.15801044 -123.38671875 616.27734375 C-125.36605644 613.48326658 -126.98949346 610.58052375 -128.61328125 607.5703125 C-130.41336748 604.23381464 -132.26198224 600.92667912 -134.125 597.625 C-134.46200928 597.0175293 -134.79901855 596.41005859 -135.14624023 595.78417969 C-136.83978965 592.78851247 -138.51014057 590.36144261 -141 588 C-141.91403728 586.20577868 -142.82197315 584.40812942 -143.6953125 582.59375 C-145.38553315 579.23355087 -147.21002175 575.96042232 -149.0625 572.6875 C-149.4030542 572.07672607 -149.7436084 571.46595215 -150.09448242 570.83666992 C-151.80837665 567.82557174 -153.50710411 565.38756226 -156 563 C-157.1328125 561.09765625 -157.1328125 561.09765625 -158.125 559.0625 C-158.45757813 558.39347656 -158.79015625 557.72445312 -159.1328125 557.03515625 C-159.98396031 555.0376427 -160.53573824 553.11760212 -161 551 C-161.66 551 -162.32 551 -163 551 C-163.32613281 550.31292969 -163.65226563 549.62585938 -163.98828125 548.91796875 C-164.42527344 548.01691406 -164.86226562 547.11585938 -165.3125 546.1875 C-165.95638672 544.84751953 -165.95638672 544.84751953 -166.61328125 543.48046875 C-167.90312671 541.17328038 -169.130024 539.81512337 -171 538 C-172.1328125 536.09765625 -172.1328125 536.09765625 -173.125 534.0625 C-173.45757813 533.39347656 -173.79015625 532.72445312 -174.1328125 532.03515625 C-174.98396031 530.0376427 -175.53573824 528.11760212 -176 526 C-176.66 526 -177.32 526 -178 526 C-178.30292969 525.3709375 -178.60585938 524.741875 -178.91796875 524.09375 C-179.33691406 523.2378125 -179.75585938 522.381875 -180.1875 521.5 C-180.59355469 520.6646875 -180.99960937 519.829375 -181.41796875 518.96875 C-183.43115891 515.19091168 -185.71056574 511.61476279 -188 508 C-195.14722906 496.48113711 -202.08273364 484.83952188 -208.95703125 473.15625 C-211.94237097 468.08662471 -214.96677976 463.04108188 -218 458 C-218.7814573 456.69804107 -219.5627242 455.39596782 -220.34375 454.09375 C-220.69953125 453.50078125 -221.0553125 452.9078125 -221.421875 452.296875 C-234.28125 430.86458333 -247.140625 409.43229167 -260 388 C-260.46148438 387.23300781 -260.92296875 386.46601562 -261.3984375 385.67578125 C-262.68187405 383.53150311 -263.95616495 381.3824646 -265.2265625 379.23046875 C-265.62230469 378.56337891 -266.01804687 377.89628906 -266.42578125 377.20898438 C-267.20487726 375.89568736 -267.98108755 374.5806726 -268.75390625 373.26367188 C-270.41199421 370.47560582 -272.05721691 367.92917014 -274.1015625 365.3984375 C-276.12037617 362.84791981 -277.38639829 360.38528605 -278.75 357.4375 C-281.37599697 352.03413281 -284.46050652 347.21606686 -287.859375 342.2734375 C-290.2841279 338.56551245 -292.43086067 334.7559787 -294.5625 330.875 C-297.06667094 326.3173021 -299.61549905 321.95877663 -302.6875 317.75 C-305.17530675 314.33782469 -307.10789337 310.93176218 -308.9375 307.125 C-311.48850304 301.82053336 -314.52902748 297.11642379 -317.859375 292.2734375 C-320.2841279 288.56551245 -322.43086067 284.7559787 -324.5625 280.875 C-327.06667094 276.3173021 -329.61549905 271.95877663 -332.6875 267.75 C-335.14621569 264.37418899 -337.06670558 261.01521578 -338.875 257.25 C-341.38860134 252.02224403 -344.34241447 247.209413 -347.52709961 242.37670898 C-351.05175304 237.00230076 -354.22901949 231.46823391 -357.37109375 225.86328125 C-358.50764057 223.86546634 -359.72503357 221.91244965 -361 220 C-361 219.01 -361 218.02 -361 217 C-360.37996094 216.67128906 -359.75992188 216.34257813 -359.12109375 216.00390625 C-351.65820112 211.995453 -344.39775122 207.68871356 -337.15429688 203.30224609 C-333.21341931 200.92003384 -329.26210819 198.55519806 -325.3125 196.1875 C-323.60021713 195.16022839 -321.88797795 194.13288397 -320.17578125 193.10546875 C-309.98046875 186.98828125 -309.98046875 186.98828125 -307.48632812 185.49194336 C-305.83250982 184.49955494 -304.17886316 183.50688043 -302.52539062 182.51391602 C-298.22539008 179.93213953 -293.92206279 177.35616139 -289.61328125 174.7890625 C-288.72576172 174.25925781 -287.83824219 173.72945312 -286.92382812 173.18359375 C-285.24525563 172.18172326 -283.56565177 171.18157764 -281.88476562 170.18359375 C-277.17172692 167.36760242 -272.574794 164.42711643 -268.03808594 161.33447266 C-266.04974853 160.03257373 -264.03037546 158.87444223 -261.9375 157.75 C-257.50463938 155.35049021 -253.26048737 152.68897603 -249 150 C-244.22352267 146.98718709 -239.44230166 144.08431628 -234.46875 141.40625 C-230.18416027 138.96566091 -226.04398711 136.28949365 -221.87426758 133.65893555 C-217.69476729 131.03155393 -213.47761166 128.54898615 -209.1328125 126.203125 C-205.58288456 124.20060155 -202.18440278 121.96266586 -198.7578125 119.7578125 C-194.55877614 117.08137289 -190.28031976 114.5435766 -186 112 C-184.43703585 111.06327401 -182.87454494 110.12575802 -181.3125 109.1875 C-156.20833333 94.125 -131.10416667 79.0625 -106 64 C-105.22527344 63.53464844 -104.45054687 63.06929688 -103.65234375 62.58984375 C-101.58375342 61.34990816 -99.51319577 60.11347696 -97.44140625 58.87890625 C-91.62186347 55.40583391 -85.82422699 51.91892733 -80.125 48.25 C-77.0682817 46.28528648 -74.00879745 44.41506566 -70.8125 42.6875 C-66.42354792 40.30718545 -62.22074006 37.66274551 -58 35 C-49.66317194 29.74170797 -49.66317194 29.74170797 -45.5 27.5 C-40.46915317 24.79033539 -35.6709231 21.7081616 -30.84570312 18.65234375 C-26.62285457 15.9844039 -22.34773399 13.45927039 -18 11 C-17.071875 10.4225 -16.14375 9.845 -15.1875 9.25 C-13 8 -13 8 -11 8 C-11 7.34 -11 6.68 -11 6 C-9.93458984 5.47599609 -9.93458984 5.47599609 -8.84765625 4.94140625 C-7.92855469 4.48636719 -7.00945312 4.03132813 -6.0625 3.5625 C-5.14597656 3.11003906 -4.22945312 2.65757812 -3.28515625 2.19140625 C-1.09471096 1.19474606 -1.09471096 1.19474606 0 0 Z " fill="#FEFEFE" transform="translate(1058,386)"/>
<path d="M0 0 C0.33 0.66 0.66 1.32 1 2 C35.32 2 69.64 2 105 2 C105.01689942 56.04191527 105.03303133 110.0838305 105.04234314 164.12574768 C105.0424812 164.92493081 105.04261925 165.72411394 105.04276149 166.54751474 C105.04575404 183.91377043 105.04852428 201.28002616 105.05106533 218.64628192 C105.05231272 227.16205579 105.05360927 235.67782966 105.05493164 244.19360352 C105.05512778 245.46477109 105.05512778 245.46477109 105.05532788 246.76161881 C105.05959313 274.25515608 105.06710735 301.7486913 105.07629722 329.24222733 C105.08571987 357.48330272 105.09188313 385.72437699 105.09391499 413.96545393 C105.09420317 417.94961092 105.0945288 421.9337679 105.09487724 425.91792488 C105.09494467 426.70210378 105.09501209 427.48628268 105.09508156 428.29422458 C105.09626564 440.94347864 105.10091004 453.59272921 105.10683203 466.24198184 C105.11270497 478.94291203 105.11497158 491.64383874 105.11350138 504.34477025 C105.11280534 511.23282923 105.11374864 518.12087881 105.11920547 525.00893593 C105.12403719 531.30351564 105.12434016 537.59807801 105.12089889 543.89265848 C105.12047298 546.18068303 105.12177062 548.46870862 105.12488318 550.75673109 C105.1288433 553.84514354 105.12676581 556.93349177 105.12304783 560.02190304 C105.12567484 560.92893989 105.12830186 561.83597674 105.13100848 562.77049956 C105.1141458 568.8858542 105.1141458 568.8858542 104 570 C102.65927183 570.09527037 101.31357497 570.1218877 99.96946716 570.12025452 C99.10143463 570.12162918 98.2334021 570.12300385 97.33906555 570.12442017 C96.37953476 570.12082489 95.42000397 570.11722961 94.43139648 570.11352539 C93.42663269 570.11367142 92.4218689 570.11381744 91.38665771 570.1139679 C88.04811483 570.1132683 84.70962695 570.10547374 81.37109375 570.09765625 C79.06323782 570.09579224 76.75538149 570.09436826 74.44752502 570.09336853 C68.35982174 570.08954204 62.27214214 570.07971065 56.18444824 570.06866455 C49.97778646 570.05845323 43.77112087 570.05387151 37.56445312 570.04882812 C25.37628998 570.0380885 13.18815066 570.02049064 1 570 C1 563.07 1 556.14 1 549 C-2.465 550.7325 -2.465 550.7325 -6 552.5 C-6.78753662 552.89195557 -7.57507324 553.28391113 -8.38647461 553.68774414 C-11.8796015 555.42712684 -15.36219119 557.18052129 -18.81640625 558.99609375 C-59.15509982 580.03524196 -104.89184433 587.96617847 -150 581 C-151.02963867 580.84724609 -151.02963867 580.84724609 -152.08007812 580.69140625 C-160.71446798 579.38536409 -169.20506566 577.56905659 -177.6875 575.5 C-178.94409424 575.19775513 -178.94409424 575.19775513 -180.22607422 574.8894043 C-184.83661151 573.72626389 -188.77330099 572.23332131 -193 570 C-194.40415335 569.56184266 -195.82175449 569.16427158 -197.25 568.8125 C-202.4312705 567.32988378 -207.27230802 565.24675215 -212.1875 563.0625 C-212.94772461 562.72645752 -213.70794922 562.39041504 -214.49121094 562.04418945 C-220.82662562 559.18938473 -226.76197951 555.93953646 -232.5 552 C-235.07371741 550.25679308 -237.57953983 548.6828933 -240.3125 547.1875 C-251.86063545 540.73334577 -262.70801299 531.35183878 -272 522 C-273.28040011 520.88278814 -274.57134449 519.77748583 -275.875 518.6875 C-280.00296693 515.09964089 -283.50590569 511.19740238 -287 507 C-287.65355469 506.24589844 -288.30710937 505.49179688 -288.98046875 504.71484375 C-304.66722822 486.22789771 -316.64346571 465.36052454 -326.09106445 443.11083984 C-327.05422997 440.87406061 -328.0595768 438.65883667 -329.06640625 436.44140625 C-334.1266247 425.06937277 -336.81686062 413.21853844 -338.69580078 400.96923828 C-338.97801112 399.14234536 -339.28297652 397.31900706 -339.58984375 395.49609375 C-342.35679893 378.71259187 -342.21364968 361.95875792 -342 345 C-341.99274902 344.11521973 -341.98549805 343.23043945 -341.97802734 342.31884766 C-341.82107917 329.45175769 -339.19792535 317.43206418 -336 305 C-335.70609375 303.84886719 -335.4121875 302.69773437 -335.109375 301.51171875 C-334.44045521 298.99615337 -333.73398318 296.49723013 -333 294 C-332.75507812 293.13375 -332.51015625 292.2675 -332.2578125 291.375 C-330.82173157 286.40053411 -329.1143453 281.73613346 -327 277 C-326.74863281 276.32195312 -326.49726562 275.64390625 -326.23828125 274.9453125 C-323.23897418 266.88382653 -319.12468887 259.43073377 -315.02490234 251.88964844 C-314.19036993 250.35099173 -313.36865868 248.80538651 -312.55078125 247.2578125 C-309.9283358 242.36141933 -306.90020358 237.86182034 -303.6484375 233.359375 C-301.98349129 231.04906196 -301.98349129 231.04906196 -300.66015625 228.67578125 C-293.68319049 217.43055408 -283.97714145 207.6940637 -274.6875 198.375 C-273.86451416 197.54669678 -273.04152832 196.71839355 -272.19360352 195.86499023 C-267.07928378 190.80920202 -261.77306011 186.28236383 -256 182 C-255.35119873 181.50773926 -254.70239746 181.01547852 -254.03393555 180.50830078 C-246.94843389 175.14097109 -239.93614256 170.04700217 -232 166 C-230.22770378 165.02348366 -228.45696478 164.04413764 -226.6875 163.0625 C-204.641914 151.10712673 -177.67869944 138.01235771 -152 139 C-152 138.34 -152 137.68 -152 137 C-140.99173255 136.12729443 -130.04101012 135.7596715 -119 135.75 C-118.19251312 135.74899292 -117.38502625 135.74798584 -116.55307007 135.74694824 C-103.16517159 135.75817707 -90.18897819 136.56206172 -77 139 C-76.24412598 139.12858398 -75.48825195 139.25716797 -74.70947266 139.38964844 C-47.64707578 144.06563084 -22.6108352 156.50809417 1 170 C1 114.89 1 59.78 1 3 C-162.35 3 -325.7 3 -494 3 C-494 2.67 -494 2.34 -494 2 C-330.98 2 -167.96 2 0 2 C0 1.34 0 0.68 0 0 Z " fill="#FDFDFD" transform="translate(1478,1080)"/>
<path d="M0 0 C34.32 0 68.64 0 104 0 C104 187.44 104 374.88 104 568 C69.68 568 35.36 568 0 568 C0 561.07 0 554.14 0 547 C-5.47949231 549.65916539 -10.7789917 552.42448465 -16 555.5625 C-21.20861744 558.62833178 -26.34534988 560.90926752 -32 563 C-34.24349301 563.86898105 -36.48369927 564.74618024 -38.72412109 565.62304688 C-42.47884632 567.09225398 -46.23785616 568.54990947 -50 570 C-50.6820752 570.26723877 -51.36415039 570.53447754 -52.06689453 570.80981445 C-63.65169572 575.28032708 -75.71379515 577.5235462 -88 579 C-89.28390625 579.185625 -90.5678125 579.37125 -91.890625 579.5625 C-118.37904561 583.21682853 -149.01923901 583.34006937 -174.40625 574.25390625 C-178.31736641 572.88926672 -182.22010846 571.93107009 -186.25 571 C-193.18798164 569.33961409 -199.50893603 566.93585917 -206 564 C-207.37259808 563.40760137 -208.74637372 562.81792636 -210.12109375 562.23046875 C-211.56005794 561.61235643 -212.99886127 560.99386945 -214.4375 560.375 C-215.44973633 559.94127075 -215.44973633 559.94127075 -216.48242188 559.4987793 C-220.16681053 557.89308289 -223.59612095 556.1316095 -227 554 C-228.36705078 553.21882813 -228.36705078 553.21882813 -229.76171875 552.421875 C-236.44164727 548.60477299 -242.79224515 544.54156298 -249 540 C-249.92296875 539.33355469 -250.8459375 538.66710938 -251.796875 537.98046875 C-270.24929443 524.43404973 -285.45394616 509.05957751 -299.25 490.8125 C-299.74540283 490.15950928 -300.24080566 489.50651855 -300.7512207 488.83374023 C-310 476.48078009 -310 476.48078009 -310 473 C-310.66 473 -311.32 473 -312 473 C-312.51949219 471.94941406 -313.03898438 470.89882812 -313.57421875 469.81640625 C-314.27816507 468.39819876 -314.98262695 466.98024711 -315.6875 465.5625 C-316.23724487 464.45588013 -316.23724487 464.45588013 -316.7980957 463.3269043 C-318.66492828 459.5911827 -320.57393484 455.91639957 -322.6875 452.3125 C-325.78392185 446.79860594 -327.92161325 440.957384 -330 435 C-330.27102539 434.23026855 -330.54205078 433.46053711 -330.82128906 432.66748047 C-334.57035525 421.87896654 -337.62065913 411.07604593 -339.875 399.875 C-340.07802734 398.86920898 -340.28105469 397.86341797 -340.49023438 396.82714844 C-346.00805388 367.89200845 -345.8659739 334.39152492 -338 306 C-337.6571102 304.60424053 -337.31944579 303.20718159 -336.98828125 301.80859375 C-335.29298919 294.94874106 -333.17755946 288.21965778 -331 281.5 C-330.76289307 280.75758057 -330.52578613 280.01516113 -330.28149414 279.25024414 C-328.67708375 274.43810254 -326.60619869 270.35079987 -324 266 C-323.26825718 264.31381003 -322.53739306 262.62708223 -321.83203125 260.9296875 C-313.30876922 241.16212205 -300.61857461 223.51823935 -286.35449219 207.52636719 C-285.06705688 206.0755659 -283.8023726 204.60466903 -282.5390625 203.1328125 C-281.82492187 202.30523438 -281.11078125 201.47765625 -280.375 200.625 C-279.45847656 199.56152344 -279.45847656 199.56152344 -278.5234375 198.4765625 C-277 197 -277 197 -275 197 C-274.67 196.01 -274.34 195.02 -274 194 C-271.98828125 192.125 -271.98828125 192.125 -269.3125 190 C-268.31089844 189.20335937 -267.30929687 188.40671875 -266.27734375 187.5859375 C-265.47272705 186.95316895 -265.47272705 186.95316895 -264.65185547 186.30761719 C-263.00583835 185.00462167 -261.37874193 183.68084072 -259.75390625 182.3515625 C-246.77330459 171.81823239 -233.08343441 163.19336999 -218 156 C-216.88367188 155.41605469 -215.76734375 154.83210938 -214.6171875 154.23046875 C-205.67029913 149.55322301 -196.57963305 146.1317059 -187 143 C-186.08476563 142.69191406 -185.16953125 142.38382813 -184.2265625 142.06640625 C-178.03389105 140.08104813 -171.69893496 138.86653173 -165.3203125 137.6484375 C-163.52708052 137.29822984 -161.73499227 136.92749307 -159.97265625 136.4453125 C-155.99342757 135.54703117 -151.86273159 135.53427472 -147.80078125 135.28125 C-145.0972125 135.30818487 -145.0972125 135.30818487 -144 134 C-140.98840054 133.89848326 -138.00028165 133.86034842 -134.98828125 133.8671875 C-134.0684697 133.86623077 -133.14865814 133.86527405 -132.20097351 133.86428833 C-130.24132215 133.86360555 -128.28166855 133.8654666 -126.32202148 133.86962891 C-123.3702256 133.87489698 -120.41858748 133.86972891 -117.46679688 133.86328125 C-89.81798866 133.8499484 -89.81798866 133.8499484 -78.25 136.9375 C-76.80894809 137.30088723 -75.36754247 137.66287478 -73.92578125 138.0234375 C-73.25111816 138.19456055 -72.57645508 138.36568359 -71.88134766 138.54199219 C-69.41592686 139.14219066 -66.93380483 139.61002078 -64.4375 140.0625 C-60.76986439 140.76876767 -57.44021669 141.83581463 -53.9765625 143.22265625 C-51.94203028 144.02279837 -49.89340097 144.70532823 -47.8125 145.375 C-38.9716678 148.31691515 -30.40605134 151.66257673 -22.0625 155.8125 C-21.46751709 156.10729248 -20.87253418 156.40208496 -20.25952148 156.70581055 C-13.34800986 160.21402998 -6.7488006 164.14354251 0 168 C0 112.56 0 57.12 0 0 Z " fill="#FDFDFD" transform="translate(830,1082)"/>
<path d="M0 0 C2.47434614 0.00536417 4.94851085 0.00001689 7.42285156 -0.00634766 C20.67575112 -0.01395229 33.71459161 0.38466522 46.72753906 3.13037109 C48.23731323 3.44760132 48.23731323 3.44760132 49.77758789 3.77124023 C70.85136641 8.46601429 90.71183199 16.5657621 109.47753906 27.13037109 C111.12292339 28.04784346 112.76872906 28.9645608 114.41503906 29.88037109 C115.1046875 30.26708984 115.79433594 30.65380859 116.50488281 31.05224609 C118.47023797 32.12638079 120.47426449 33.12873381 122.47753906 34.13037109 C122.47753906 26.54037109 122.47753906 18.95037109 122.47753906 11.13037109 C135.88979999 11.10782248 149.30204844 11.08945741 162.714324 11.07855892 C168.94147378 11.07332949 175.16860999 11.06623077 181.39575195 11.05493164 C187.39980771 11.04410488 193.40385036 11.03809471 199.40791512 11.03549385 C201.70415516 11.03363922 204.00039445 11.03001789 206.29662895 11.02464104 C209.5007472 11.01743341 212.70481056 11.01638003 215.90893555 11.0168457 C217.34823174 11.01145279 217.34823174 11.01145279 218.81660461 11.00595093 C219.68463715 11.00732559 220.55266968 11.00870026 221.44700623 11.01011658 C222.20564185 11.00919478 222.96427748 11.00827299 223.74590206 11.00732327 C225.47753906 11.13037109 225.47753906 11.13037109 226.47753906 12.13037109 C226.57657086 14.36028984 226.60309664 16.59342196 226.6033802 18.82553864 C226.60483364 19.5371982 226.60628708 20.24885777 226.60778457 20.98208278 C226.61147067 23.39697086 226.60794616 25.81179683 226.60452271 28.22668457 C226.6056735 29.96337622 226.60726073 31.70006763 226.60924995 33.43675852 C226.61344907 38.23263767 226.61134997 43.02849709 226.60826373 47.82437634 C226.60601221 52.98734503 226.609488 58.1503102 226.61224365 63.3132782 C226.61670301 73.43684636 226.61572415 83.56040712 226.61283101 93.68397558 C226.61057763 101.90762924 226.61026417 110.13128081 226.61135483 118.35493469 C226.61150806 119.52293756 226.61166129 120.69094043 226.61181917 121.89433733 C226.61213888 124.26670706 226.61246309 126.6390768 226.61279176 129.01144654 C226.61564704 151.28572439 226.61235879 173.55999813 226.6069914 195.83427531 C226.60252331 214.96927153 226.60329923 234.10426169 226.60791016 253.23925781 C226.61325508 275.43086583 226.61537234 297.62247024 226.61229789 319.81407881 C226.61197932 322.17798837 226.61166495 324.54189793 226.61135483 326.9058075 C226.61120055 328.06906222 226.61104628 329.23231694 226.61088733 330.43082181 C226.61002192 338.64978967 226.61148554 346.86875526 226.61383438 355.08772278 C226.61663167 365.09643978 226.61589563 375.10514893 226.61055364 385.11386502 C226.60791566 390.22577288 226.60691318 395.33766764 226.61020279 400.44957542 C226.61316379 405.12129807 226.61157626 409.79299534 226.60622524 414.46471566 C226.6051002 416.16253865 226.60569411 417.86036374 226.60810103 419.5581854 C226.61110366 421.85055607 226.60806196 424.14283768 226.6033802 426.43520355 C226.60321785 427.71317983 226.6030555 428.99115611 226.60288823 430.30785894 C226.47753906 433.13037109 226.47753906 433.13037109 225.47753906 434.13037109 C224.1368109 434.22564146 222.79111403 434.25225879 221.44700623 434.25062561 C220.57897369 434.25200027 219.71094116 434.25337494 218.81660461 434.25479126 C217.37730843 434.24939835 217.37730843 434.24939835 215.90893555 434.24389648 C214.90417175 434.24404251 213.89940796 434.24418854 212.86419678 434.24433899 C209.52565389 434.2436394 206.18716602 434.23584483 202.84863281 434.22802734 C200.54077688 434.22616333 198.23292055 434.22473935 195.92506409 434.22373962 C189.8373608 434.21991314 183.7496812 434.21008174 177.6619873 434.19903564 C171.45532553 434.18882433 165.24865994 434.18424261 159.04199219 434.17919922 C146.85382904 434.16845959 134.66568972 434.15086174 122.47753906 434.13037109 C122.47753906 426.87037109 122.47753906 419.61037109 122.47753906 412.13037109 C119.01253906 414.11037109 119.01253906 414.11037109 115.47753906 416.13037109 C104.16197715 422.5262763 92.68848829 428.61762899 80.47753906 433.13037109 C79.80722656 433.39333984 79.13691406 433.65630859 78.44628906 433.92724609 C73.20525269 435.96542691 67.88447711 437.59330443 62.47753906 439.13037109 C61.54482178 439.41315918 61.54482178 439.41315918 60.59326172 439.70166016 C6.32034674 456.1028863 -51.4258782 446.63783327 -101.52246094 422.13037109 C-103.20886636 421.1640303 -104.88135408 420.1717865 -106.52246094 419.13037109 C-107.23144531 418.71658203 -107.94042969 418.30279297 -108.67089844 417.87646484 C-120.85618185 410.71493863 -132.11925123 402.98912091 -142.69433594 393.59912109 C-145.45457235 391.08225416 -145.45457235 391.08225416 -148.52246094 389.13037109 C-148.52246094 388.47037109 -148.52246094 387.81037109 -148.52246094 387.13037109 C-149.09609375 386.88158203 -149.66972656 386.63279297 -150.26074219 386.37646484 C-158.58059375 381.79264334 -164.72245308 372.4321667 -170.52246094 365.13037109 C-171.20308594 364.29376953 -171.88371094 363.45716797 -172.58496094 362.59521484 C-180.1902151 353.22233325 -186.94120463 343.84765529 -192.52246094 333.13037109 C-193.39173317 331.54388591 -194.26642101 329.9603515 -195.14746094 328.38037109 C-195.51097656 327.72552734 -195.87449219 327.07068359 -196.24902344 326.39599609 C-197.29718082 324.5311762 -198.385041 322.68872832 -199.48339844 320.85302734 C-201.60334036 317.14535892 -203.09241794 313.3331789 -204.52246094 309.31787109 C-205.03714476 307.90606929 -205.55276893 306.49460994 -206.06933594 305.08349609 C-206.31619141 304.40609375 -206.56304688 303.72869141 -206.81738281 303.03076172 C-207.74868208 300.52063932 -208.75466161 298.04400975 -209.77246094 295.56787109 C-212.95125156 287.66667958 -214.66690807 279.42094472 -216.52246094 271.13037109 C-216.79445313 269.93025391 -217.06644531 268.73013672 -217.34667969 267.49365234 C-217.6109375 266.30126953 -217.87519531 265.10888672 -218.14746094 263.88037109 C-218.38722656 262.80271484 -218.62699219 261.72505859 -218.87402344 260.61474609 C-220.32467413 252.81968333 -220.69867166 245.11022004 -220.76074219 237.19287109 C-220.77062668 236.16307129 -220.78051117 235.13327148 -220.79069519 234.07226562 C-221.09280992 194.46522989 -217.50831461 154.28876691 -196.07714844 119.66552734 C-194.72552397 117.46149649 -193.56505751 115.27636013 -192.45996094 112.94287109 C-188.64405034 105.13542222 -183.19283556 98.206859 -178.12548828 91.17871094 C-176.14916272 88.43403123 -174.22602909 85.68116696 -172.36230469 82.85693359 C-170.34544589 79.86804307 -168.13122889 77.617801 -165.52246094 75.13037109 C-164.3531092 73.96639569 -163.18659962 72.79956027 -162.02246094 71.63037109 C-159.1891276 68.79703776 -156.35579427 65.96370443 -153.52246094 63.13037109 C-152.92691406 62.52322266 -152.33136719 61.91607422 -151.71777344 61.29052734 C-143.53008869 52.99133716 -134.83345642 45.9829814 -125.265625 39.34277344 C-123.67494515 38.23642664 -122.09423802 37.11577637 -120.51464844 35.99365234 C-113.15063848 30.88700239 -105.45164483 26.91421726 -97.39746094 23.04443359 C-94.7447582 21.75124101 -92.13876855 20.37040115 -89.52246094 19.00537109 C-72.41672386 10.48712955 -54.04411897 5.31971442 -35.17871094 2.70849609 C-31.72589755 2.52980577 -31.72589755 2.52980577 -30.52246094 1.13037109 C-20.41624866 -0.1348855 -10.16722894 -0.02615235 0 0 Z " fill="#FDFDFD" transform="translate(1838.5224609375,1215.86962890625)"/>
<path d="M0 0 C0.80571442 -0.00167175 1.61142883 -0.00334351 2.44155884 -0.00506592 C21.94190473 -0.00747733 41.36016173 1.65346929 60.125 7.25 C60.93453125 7.45367188 61.7440625 7.65734375 62.578125 7.8671875 C69.74360469 9.68926662 76.36549397 12.27282144 83.125 15.25 C83.84945313 15.55679687 84.57390625 15.86359375 85.3203125 16.1796875 C95.94447549 20.74444194 106.42925353 25.94476944 116.20703125 32.12109375 C118.22731891 33.40004802 118.22731891 33.40004802 121.125 34.25 C121.125 26.66 121.125 19.07 121.125 11.25 C155.115 11.25 189.105 11.25 224.125 11.25 C224.125 150.84 224.125 290.43 224.125 434.25 C190.135 434.25 156.145 434.25 121.125 434.25 C121.125 426.99 121.125 419.73 121.125 412.25 C118.44375 413.755625 115.7625 415.26125 113 416.8125 C101.00494907 423.48932871 89.05173455 429.54486673 76.125 434.25 C75.27035156 434.58644531 74.41570312 434.92289063 73.53515625 435.26953125 C34.83687494 450.23604683 -15.48204977 453.43479891 -54.875 440.25 C-56.78825727 439.79782308 -58.70506037 439.36040562 -60.625 438.9375 C-68.3202103 437.06011625 -75.57631006 434.00380159 -82.90283203 431.03857422 C-84.47662568 430.40929055 -86.06267249 429.81067811 -87.65234375 429.22265625 C-99.39007734 424.86865935 -110.68140092 418.47300933 -120.875 411.25 C-121.82761719 410.61964844 -122.78023438 409.98929688 -123.76171875 409.33984375 C-134.94869703 401.83039158 -147.20129576 393.2846774 -155.65625 382.69140625 C-156.96379532 381.0494719 -156.96379532 381.0494719 -159.3125 379.3125 C-166.94142976 373.1721419 -172.6835588 364.53391763 -178.65039062 356.82568359 C-179.65842714 355.52866053 -180.67908542 354.24145696 -181.703125 352.95703125 C-185.0776636 348.65005436 -187.69306829 344.13095678 -190.2421875 339.29296875 C-191.7120817 336.55362047 -193.25985419 333.87453794 -194.84082031 331.19824219 C-201.40538062 320.02175282 -206.05866718 308.11876155 -210.5 295.97265625 C-211.30179374 293.80189082 -212.12486769 291.63834472 -213 289.49609375 C-218.61449247 275.48179419 -220.159334 260.28291704 -221.625 245.375 C-221.75269775 244.09270508 -221.88039551 242.81041016 -222.01196289 241.48925781 C-226.28582758 194.81613253 -215.41882427 145.84638884 -189.875 106.25 C-189.36839844 105.40953125 -188.86179688 104.5690625 -188.33984375 103.703125 C-184.11917953 96.79839773 -179.28825052 90.51742448 -174.23046875 84.21875 C-171.85185295 81.30478399 -171.85185295 81.30478399 -169.875 78.25 C-169.215 78.25 -168.555 78.25 -167.875 78.25 C-167.65070313 77.70988281 -167.42640625 77.16976563 -167.1953125 76.61328125 C-165.45695392 73.50172225 -163.16189422 71.03061578 -160.75 68.4375 C-160.30140625 67.94185547 -159.8528125 67.44621094 -159.390625 66.93554688 C-155.49641231 62.70956467 -151.24778945 58.97133726 -146.875 55.25 C-146.21322754 54.6820874 -145.55145508 54.1141748 -144.86962891 53.52905273 C-135.62728665 45.64229909 -126.28463923 38.51397767 -115.875 32.25 C-115.01777344 31.71117187 -114.16054687 31.17234375 -113.27734375 30.6171875 C-90.49469768 16.46601547 -63.17941649 5.78989397 -36.42578125 2.7109375 C-33.06323365 2.64163208 -33.06323365 2.64163208 -31.875 1.25 C-21.32697036 -0.03163137 -10.61102135 0.01172865 0 0 Z " fill="#FEFEFE" transform="translate(222.875,1215.75)"/>
<path d="M0 0 C2.98934485 0.01834704 5.97837777 0.02050774 8.96777344 0.02026367 C27.00116769 0.05078673 44.78638705 0.55566108 62.60839844 3.45581055 C63.29629456 3.56563263 63.98419067 3.67545471 64.69293213 3.78860474 C74.96593002 5.4396912 84.58620306 7.63191813 94.35839844 11.20581055 C95.84053867 11.68029662 97.32507132 12.14735414 98.81152344 12.6081543 C132.62556592 23.17548554 161.19076836 44.73483069 178.33544922 75.98681641 C180.92189108 80.98557508 182.7730531 85.99892752 184.35839844 91.39331055 C184.61186035 92.25480713 184.86532227 93.11630371 185.12646484 94.00390625 C186.9089246 100.25041738 188.44158816 106.52746423 189.73339844 112.89331055 C189.90097656 113.67407959 190.06855469 114.45484863 190.24121094 115.25927734 C191.85694268 123.80193663 191.35839844 131.10356179 191.35839844 140.20581055 C155.05839844 140.20581055 118.75839844 140.20581055 81.35839844 140.20581055 C80.69839844 137.89581055 80.03839844 135.58581055 79.35839844 133.20581055 C74.7629574 117.4353382 70.31300591 103.91521966 54.96777344 95.4753418 C39.54793937 87.97317702 23.25776349 85.44854524 6.29589844 85.64331055 C5.49701202 85.6475705 4.69812561 85.65183044 3.87503052 85.65621948 C-16.12044187 85.80379948 -37.6494522 87.02567344 -52.64160156 101.83081055 C-58.32174842 109.01084949 -60.43572624 118.6854385 -60.01660156 127.7097168 C-58.99770983 134.49171491 -55.53542909 139.15471945 -50.27832031 143.4206543 C-30.8827328 156.5521854 -6.07348631 162.75559204 16.68457031 166.73217773 C20.86436707 167.4725727 25.01668247 168.33482014 29.17089844 169.20581055 C29.97720703 169.37081055 30.78351562 169.53581055 31.61425781 169.70581055 C35.9856091 170.62082766 40.1237217 171.77111132 44.35839844 173.20581055 C46.66432497 173.73529999 48.97739645 174.23442451 51.29589844 174.70581055 C56.05583817 175.69953492 60.68896878 176.84743101 65.35839844 178.20581055 C68.62639814 178.9650428 71.89874574 179.70091727 75.17480469 180.42456055 C78.30738718 181.19329245 81.30301402 182.17763623 84.35839844 183.20581055 C85.79027 183.54316249 87.22776667 183.85794551 88.67089844 184.14331055 C92.5067559 184.96664767 96.14333462 186.0720013 99.84667969 187.3581543 C102.80990648 188.35818573 105.79954892 189.24756714 108.79589844 190.14331055 C113.60613734 191.6126402 118.2496992 193.27389382 122.88964844 195.2097168 C125.55871865 196.28663595 128.26038841 197.21195135 130.98339844 198.14331055 C135.10137508 199.62923778 138.59018081 201.37423165 142.21777344 203.80737305 C144.76010283 205.46823787 147.39368523 206.91445868 150.04589844 208.39331055 C172.5835813 221.559168 192.41753117 241.87459805 199.29589844 267.64331055 C199.49054687 268.50827148 199.68519531 269.37323242 199.88574219 270.2644043 C200.178674 272.19934328 200.178674 272.19934328 201.35839844 273.20581055 C203.22246863 282.61521496 203.68422514 291.95193659 203.60839844 301.51831055 C203.60018066 302.78795654 203.59196289 304.05760254 203.58349609 305.36572266 C203.31006483 328.39422107 198.9100011 349.08743314 187.35839844 369.20581055 C187.01437988 369.80586914 186.67036133 370.40592773 186.31591797 371.02416992 C177.96819582 385.29896938 167.44415597 397.13554764 154.35839844 407.20581055 C153.6275 407.78975586 152.89660156 408.37370117 152.14355469 408.9753418 C144.35574572 415.06679634 135.47093135 419.21669245 126.64355469 423.57299805 C124.78712003 424.49569684 122.93597311 425.42983507 121.10449219 426.40112305 C115.43483061 429.40758242 109.45832593 431.2612276 103.35839844 433.20581055 C102.76333496 433.41890869 102.16827148 433.63200684 101.55517578 433.8515625 C93.81555792 436.58270303 85.84929088 438.44138827 77.85839844 440.26831055 C77.07704529 440.44700684 76.29569214 440.62570312 75.49066162 440.80981445 C48.12759921 446.95666479 20.2625641 446.81223157 -7.64160156 445.51831055 C-8.50768036 445.47834961 -9.37375916 445.43838867 -10.26608276 445.3972168 C-28.84797039 444.4962044 -47.79057929 442.7295231 -65.64160156 437.20581055 C-66.72699219 436.89901367 -67.81238281 436.5922168 -68.93066406 436.27612305 C-72.50416333 435.26349211 -76.07360408 434.23765728 -79.64160156 433.20581055 C-81.31222656 432.7243457 -81.31222656 432.7243457 -83.01660156 432.2331543 C-99.87556129 427.22815063 -116.26304108 419.8060906 -130.24707031 409.0300293 C-132.68554143 407.12541315 -132.68554143 407.12541315 -135.57910156 405.2956543 C-151.36548075 394.52306136 -164.38300103 378.36876917 -172.66015625 361.22412109 C-173.31239236 359.88281862 -173.98890344 358.55304162 -174.68945312 357.23632812 C-177.25724688 352.37689276 -178.87532442 347.59285092 -180.20410156 342.26831055 C-180.41317139 341.44419678 -180.62224121 340.62008301 -180.83764648 339.77099609 C-184.18609604 326.26467756 -186.58757902 313.17716994 -185.64160156 299.20581055 C-184.05682023 297.62102921 -182.44386179 298.07653887 -180.24488831 298.07209778 C-179.29560455 298.06783279 -178.3463208 298.06356781 -177.36827087 298.05917358 C-176.31837479 298.05962677 -175.2684787 298.06007996 -174.18676758 298.06054688 C-173.08768066 298.05718826 -171.98859375 298.05382965 -170.85620117 298.05036926 C-167.2026254 298.04082654 -163.54909529 298.03891451 -159.89550781 298.0378418 C-157.36824016 298.0346316 -154.8409727 298.03126771 -152.31370544 298.02775574 C-147.00820408 298.02175619 -141.7027199 298.01987403 -136.3972168 298.02050781 C-130.25842067 298.02110876 -124.11971238 298.01055535 -117.98093849 297.99476415 C-112.08361789 297.98013256 -106.18632424 297.9765192 -100.2889843 297.97711754 C-97.77586445 297.97593333 -95.26274402 297.97148712 -92.7496357 297.96378517 C-89.24162533 297.95404095 -85.73384375 297.95684122 -82.22583008 297.96289062 C-81.17795822 297.95727112 -80.13008636 297.95165161 -79.05046082 297.94586182 C-77.62230545 297.95215355 -77.62230545 297.95215355 -76.16529846 297.95857239 C-75.33514001 297.95802762 -74.50498156 297.95748285 -73.64966679 297.95692158 C-71.64160156 298.20581055 -71.64160156 298.20581055 -69.64160156 300.20581055 C-69.27239084 302.90456513 -68.99367646 305.55780182 -68.76660156 308.26831055 C-68.08134829 314.92683833 -67.10213053 320.37698207 -63.64160156 326.20581055 C-63.14660156 327.09655273 -62.65160156 327.98729492 -62.14160156 328.9050293 C-54.24323049 342.30666355 -41.95489618 350.58751105 -26.99316406 354.52612305 C-23.31362222 355.39638022 -19.62093041 356.15271304 -15.89501953 356.7956543 C-14.39112968 357.06938506 -12.89425191 357.38484775 -11.40771484 357.7409668 C-2.37850119 359.75818862 6.75390741 359.50708181 15.95556641 359.46655273 C18.85177549 359.45583506 21.74736446 359.46649166 24.64355469 359.47924805 C37.79906041 359.48971761 49.24270323 358.72619498 61.35839844 353.20581055 C62.3290625 352.78428711 63.29972656 352.36276367 64.29980469 351.9284668 C75.49972811 346.76477285 84.1249778 339.5481311 89.35839844 328.20581055 C90.3392245 325.15930867 90.3392245 325.15930867 90.35839844 322.20581055 C90.46152344 320.96831055 90.56464844 319.73081055 90.67089844 318.45581055 C90.54466749 312.45410291 88.59402859 306.8821178 84.73339844 302.26049805 C76.73446988 294.82816026 66.58643898 289.78851401 56.35839844 286.20581055 C55.15699219 285.78299805 53.95558594 285.36018555 52.71777344 284.92456055 C46.87128296 282.90450336 41.04927554 280.94824347 34.9675293 279.76245117 C32.32093107 279.19781713 29.70383606 278.54461471 27.0826416 277.87283325 C18.90308511 275.7777567 10.68992916 273.95523527 2.4203186 272.25582886 C-12.03266753 269.27667193 -26.37172583 265.97455327 -40.64160156 262.20581055 C-41.59631348 261.95444336 -42.55102539 261.70307617 -43.53466797 261.4440918 C-54.10982043 258.64536127 -64.61964905 255.6973945 -75.03613281 252.35424805 C-78.47579005 251.25862591 -81.93012593 250.22991576 -85.39160156 249.20581055 C-94.55404031 246.3692816 -103.1048488 242.6047493 -111.57910156 238.14331055 C-112.20606934 237.81492187 -112.83303711 237.4865332 -113.47900391 237.14819336 C-117.19767094 235.14529549 -120.38157079 232.87506145 -123.64160156 230.20581055 C-124.45886719 229.7159668 -125.27613281 229.22612305 -126.11816406 228.72143555 C-131.03248686 225.76979894 -135.2914215 221.91922513 -139.64160156 218.20581055 C-140.26292969 217.68374023 -140.88425781 217.16166992 -141.52441406 216.6237793 C-151.54059331 207.45437849 -158.54743714 194.61043171 -163.64160156 182.20581055 C-164.01800781 181.40401367 -164.39441406 180.6022168 -164.78222656 179.77612305 C-177.21618005 152.21728585 -171.86430412 115.54463919 -161.64160156 88.20581055 C-160.48056302 85.45493745 -159.20191942 82.79406693 -157.82910156 80.14331055 C-157.4872583 79.47211182 -157.14541504 78.80091309 -156.79321289 78.109375 C-149.49318194 64.00294548 -149.49318194 64.00294548 -145.00488281 59.6003418 C-143.3759544 58.13728637 -143.3759544 58.13728637 -142.64160156 55.20581055 C-140.99857203 53.51583732 -139.32688844 51.85364661 -137.64160156 50.20581055 C-136.43503906 48.65893555 -136.43503906 48.65893555 -135.20410156 47.08081055 C-132.03741504 43.31412026 -128.30442467 40.36219785 -124.45410156 37.33081055 C-123.52609741 36.59773682 -123.52609741 36.59773682 -122.5793457 35.84985352 C-119.95596808 33.8218701 -117.80996711 32.2619324 -114.64160156 31.20581055 C-114.64160156 30.54581055 -114.64160156 29.88581055 -114.64160156 29.20581055 C-99.37926194 18.52217281 -80.69265448 10.80601053 -62.57519531 6.8581543 C-60.34970196 6.36327096 -58.14482826 5.77453688 -55.95410156 5.14331055 C-48.25019992 2.96296103 -40.45654357 1.80056566 -32.49316406 1.0925293 C-31.54889557 1.00823166 -30.60462708 0.92393402 -29.63174438 0.83708191 C-19.75488456 0.02751906 -9.90478396 -0.0625343 0 0 Z " fill="#FDFDFD" transform="translate(2294.6416015625,1210.794189453125)"/>
<path d="M0 0 C1.2065625 0.0309375 1.2065625 0.0309375 2.4375 0.0625 C2.8396875 0.81080078 2.8396875 0.81080078 3.25 1.57421875 C6.34929064 7.25285325 9.68668075 12.75555755 13.09375 18.25390625 C15.76800692 22.58349144 18.38498799 26.94695346 21 31.3125 C21.49781982 32.14354248 21.99563965 32.97458496 22.50854492 33.83081055 C23.57405391 35.61009259 24.6393958 37.3894747 25.70458984 39.16894531 C28.90364159 44.51061358 32.1085493 49.84876926 35.3125 55.1875 C38.96864074 61.28090907 38.96864074 61.28090907 40.72949219 64.22753906 C41.87788903 66.13365457 43.04028827 68.0313969 44.21582031 69.92089844 C44.76592773 70.81067383 45.31603516 71.70044922 45.8828125 72.6171875 C46.37539551 73.40335449 46.86797852 74.18952148 47.37548828 74.99951172 C48.4375 77.0625 48.4375 77.0625 48.4375 80.0625 C49.0975 80.0625 49.7575 80.0625 50.4375 80.0625 C50.8396875 80.82820312 50.8396875 80.82820312 51.25 81.609375 C53.73120465 86.21266257 56.41477483 90.56250306 59.375 94.875 C62.08614375 98.87063695 64.41048229 102.83526925 66.5 107.1875 C68.81225014 111.99948003 71.50452635 116.17961474 74.640625 120.48828125 C78.32814478 125.77105415 81.41519297 131.44214616 84.5546875 137.0625 C86.33523806 140.24100348 88.24352407 143.25613302 90.3125 146.25 C92.66334479 149.71440285 94.56123505 153.2273689 96.375 157 C98.73799889 161.86753156 101.46245762 166.12181678 104.640625 170.48828125 C108.32814478 175.77105415 111.41519297 181.44214616 114.5546875 187.0625 C116.33523806 190.24100348 118.24352407 193.25613302 120.3125 196.25 C122.66334479 199.71440285 124.56123505 203.2273689 126.375 207 C128.73799889 211.86753156 131.46245762 216.12181678 134.640625 220.48828125 C138.32814478 225.77105415 141.41519297 231.44214616 144.5546875 237.0625 C146.33523806 240.24100348 148.24352407 243.25613302 150.3125 246.25 C152.6751004 249.73453878 154.59935169 253.27552952 156.4375 257.0625 C158.61220215 261.53021712 160.9949222 265.59379003 163.81640625 269.67578125 C169.70982077 278.35259155 174.93918613 287.5185967 180.31640625 296.5234375 C181.6444085 298.74575971 182.98616843 300.9570436 184.33984375 303.1640625 C184.88769531 304.05867188 185.43554688 304.95328125 186 305.875 C186.47566406 306.64457031 186.95132813 307.41414063 187.44140625 308.20703125 C188.4375 310.0625 188.4375 310.0625 188.4375 312.0625 C141.23514392 312.21653617 94.03276826 312.35982549 46.83023071 312.44358826 C46.13182923 312.44483077 45.43342776 312.44607328 44.7138626 312.44735345 C29.53640681 312.47428843 14.35894836 312.49922024 -0.81851409 312.52208797 C-8.2613342 312.53331418 -15.70415359 312.54498314 -23.14697266 312.55688477 C-24.25795879 312.55865001 -24.25795879 312.55865001 -25.39138908 312.56045092 C-49.40644979 312.59881606 -73.42132014 312.66642734 -97.43626549 312.74917499 C-122.11086957 312.83404136 -146.78536828 312.88946266 -171.46011585 312.90773491 C-174.94373122 312.91032838 -178.42734623 312.91325911 -181.91096115 312.91639519 C-182.59659925 312.91700199 -183.28223735 312.9176088 -183.98865236 312.918234 C-195.03403775 312.92887737 -206.0790977 312.97064064 -217.12435027 313.02398831 C-228.22350529 313.07693413 -239.32241239 313.09649231 -250.42170818 313.0840124 C-256.43786823 313.07823082 -262.45307161 313.08727502 -268.46906281 313.13534927 C-273.97304488 313.17901223 -279.47542331 313.1814496 -284.97947781 313.15059005 C-286.97421995 313.14677391 -288.96906045 313.15830881 -290.96360774 313.18644864 C-305.91330436 313.38516055 -305.91330436 313.38516055 -310.03511024 310.07945812 C-311.60858009 307.76827013 -312.62223868 305.68456276 -313.5625 303.0625 C-314.10253662 302.18980469 -314.64257324 301.31710937 -315.19897461 300.41796875 C-315.61671143 299.70253906 -316.03444824 298.98710938 -316.46484375 298.25 C-316.95452637 297.41557373 -317.44420898 296.58114746 -317.94873047 295.72143555 C-318.71660889 294.40526245 -318.71660889 294.40526245 -319.5 293.0625 C-320.64639328 291.1102411 -321.79355888 289.15843556 -322.94140625 287.20703125 C-323.83110107 285.69423584 -323.83110107 285.69423584 -324.73876953 284.15087891 C-327.77934467 279.00184604 -330.8575164 273.87552724 -333.9375 268.75 C-334.5574585 267.71786377 -335.17741699 266.68572754 -335.81616211 265.62231445 C-337.73100676 262.43534778 -339.64664045 259.24885666 -341.5625 256.0625 C-344.23010008 251.62556012 -346.89659024 247.18795566 -349.5625 242.75 C-350.1611084 241.75508545 -350.7597168 240.7601709 -351.37646484 239.73510742 C-355.4958834 232.87727059 -359.54650905 225.98138714 -363.5625 219.0625 C-360.94542944 216.29274846 -358.42896929 214.18964224 -355.1484375 212.2578125 C-354.30410156 211.75636719 -353.45976562 211.25492188 -352.58984375 210.73828125 C-351.71457031 210.22652344 -350.83929688 209.71476563 -349.9375 209.1875 C-348.65939453 208.43146484 -348.65939453 208.43146484 -347.35546875 207.66015625 C-345.62540337 206.63677416 -343.89410621 205.61547177 -342.16162109 204.59619141 C-337.94725361 202.10937415 -333.75584649 199.58454269 -329.5625 197.0625 C-328.01313508 196.13262212 -326.46365721 195.2029324 -324.9140625 194.2734375 C-324.14626465 193.81275879 -323.3784668 193.35208008 -322.58740234 192.87744141 C-274.9140625 164.2734375 -274.9140625 164.2734375 -272.58642578 162.87695312 C-270.93103845 161.88365334 -269.27577246 160.8901513 -267.62060547 159.89648438 C-263.0935137 157.17906233 -258.56436415 154.46517806 -254.03125 151.7578125 C-253.13583496 151.22236816 -252.24041992 150.68692383 -251.31787109 150.13525391 C-249.60798624 149.11287798 -247.89741146 148.09165473 -246.18603516 147.07177734 C-242.78312259 145.03564865 -239.42798684 142.99475568 -236.1796875 140.71875 C-233.5625 139.0625 -233.5625 139.0625 -230.5625 139.0625 C-230.5625 138.4025 -230.5625 137.7425 -230.5625 137.0625 C-229.89605469 136.71058594 -229.22960937 136.35867188 -228.54296875 135.99609375 C-222.44657003 132.73047038 -216.61731434 129.23884335 -210.875 125.3828125 C-208.5625 124.0625 -208.5625 124.0625 -205.5625 124.0625 C-205.5625 123.4025 -205.5625 122.7425 -205.5625 122.0625 C-204.56283203 121.53462891 -204.56283203 121.53462891 -203.54296875 120.99609375 C-197.44657003 117.73047038 -191.61731434 114.23884335 -185.875 110.3828125 C-183.5625 109.0625 -183.5625 109.0625 -180.5625 109.0625 C-180.5625 108.4025 -180.5625 107.7425 -180.5625 107.0625 C-179.93085938 106.73378906 -179.29921875 106.40507813 -178.6484375 106.06640625 C-173.1185652 103.12617156 -167.79840193 99.99006722 -162.5625 96.5625 C-157.62559275 93.33154325 -152.62402365 90.41860076 -147.40625 87.65625 C-144.02749093 85.76265975 -140.80213977 83.68260983 -137.5625 81.5625 C-132.62555063 78.33162385 -127.62402593 75.41860196 -122.40625 72.65625 C-119.02749093 70.76265975 -115.80213977 68.68260983 -112.5625 66.5625 C-107.62555063 63.33162385 -102.62402593 60.41860196 -97.40625 57.65625 C-94.02748057 55.76265394 -90.80221522 53.68250806 -87.5625 51.5625 C-82.59042898 48.31072927 -77.5532847 45.35805143 -72.3046875 42.56640625 C-68.22911395 40.33122703 -64.30813686 37.86292655 -60.36328125 35.40625 C-54.89057981 32.01094135 -49.34454538 28.73529538 -43.80493164 25.45068359 C-39.72162449 23.01545579 -35.71194383 20.51960851 -31.7734375 17.85546875 C-28.74633126 15.81396283 -25.76285901 14.02741066 -22.4375 12.5 C-18.73421273 10.71417987 -15.50886413 8.73024924 -12.23046875 6.26171875 C-9.48036404 4.28447719 -6.51556856 2.71621839 -3.5625 1.0625 C-2.5625 0.0625 -2.5625 0.0625 0 0 Z " fill="#FEFDFD" transform="translate(622.5625,770.9375)"/>
<path d="M0 0 C36.96 0 73.92 0 112 0 C112 143.22 112 286.44 112 434 C75.04 434 38.08 434 0 434 C0 290.78 0 147.56 0 0 Z " fill="#FEFEFE" transform="translate(984,1216)"/>
<path d="M0 0 C0.68320312 0.32097656 1.36640625 0.64195313 2.0703125 0.97265625 C10.3521099 4.93286119 18.06699127 9.48474599 25.5 14.875 C26.14138916 15.3393042 26.78277832 15.8036084 27.44360352 16.28198242 C31.87060858 19.61182573 31.87060858 19.61182573 33 23 C34.32596504 23.68120403 35.66040547 24.34600557 37 25 C38.74609375 26.76953125 38.74609375 26.76953125 40.4375 28.8125 C42.35478161 31.11234825 44.25973425 33.25050298 46.41796875 35.33203125 C49.30818108 38.31843824 51.58622724 41.41989001 53.875 44.875 C54.52190796 45.84977295 54.52190796 45.84977295 55.18188477 46.84423828 C65.43639086 62.68985999 71.29439732 79.64923137 71.3359375 98.5703125 C71.3459227 100.19016556 71.3459227 100.19016556 71.35610962 101.84274292 C71.36617964 104.11682447 71.3709284 106.39093524 71.37060547 108.66503906 C71.37496179 112.09491262 71.41129763 115.52347975 71.44921875 118.953125 C71.59488001 147.1199234 71.59488001 147.1199234 64 159 C63.42767188 160.46757532 62.88628018 161.94755725 62.375 163.4375 C55.53089547 180.84476963 40.89072615 197.96579427 25.76171875 208.67578125 C23.9918974 209.92920847 23.9918974 209.92920847 22.65478516 211.4206543 C20.81361174 213.17789107 18.96791856 214.3271791 16.76171875 215.59375 C15.94123047 216.06683594 15.12074219 216.53992187 14.27539062 217.02734375 C13.42138672 217.51332031 12.56738281 217.99929688 11.6875 218.5 C10.84509766 218.98597656 10.00269531 219.47195313 9.13476562 219.97265625 C-3.08899524 226.98769962 -3.08899524 226.98769962 -9.4375 228.4375 C-13.54918083 229.40285115 -17.62205899 230.44058767 -21.68774414 231.58520508 C-28.15494004 233.3872177 -34.2893836 234.77134196 -41 235 C-42.12792969 235.03996094 -43.25585938 235.07992188 -44.41796875 235.12109375 C-57.14601775 235.34531845 -69.00915415 233.96602843 -81.09765625 229.921875 C-83.53931608 229.1463276 -85.79373096 228.64995576 -88.3125 228.25 C-104.8853169 224.82535887 -122.66445591 211.98328947 -134 200 C-135.1446875 198.88625 -135.1446875 198.88625 -136.3125 197.75 C-137.199375 196.8425 -138.08625 195.935 -139 195 C-139.57492187 194.42121094 -140.14984375 193.84242188 -140.7421875 193.24609375 C-147.34619982 186.25751043 -152.16256122 178.25577651 -157 170 C-157.495 169.16984375 -157.99 168.3396875 -158.5 167.484375 C-173.6255007 139.8206303 -174.82677347 105.38994477 -166.125 75.625 C-164.29716052 69.39564593 -162.07588944 63.71746268 -159 58 C-158.484375 57.00613281 -157.96875 56.01226563 -157.4375 54.98828125 C-154.92559284 50.31258449 -152.45777439 46.05394239 -149 42 C-148.58234375 41.26007813 -148.1646875 40.52015625 -147.734375 39.7578125 C-145.63636302 36.42178444 -143.12072055 33.61422641 -140.4375 30.75 C-139.90229736 30.17789795 -139.36709473 29.6057959 -138.81567383 29.01635742 C-124.32493201 13.68625881 -106.89149489 1.08882841 -86.24609375 -4.39453125 C-83.91359284 -4.98638977 -83.91359284 -4.98638977 -81.37890625 -5.97265625 C-55.77904961 -13.75619648 -24.10786336 -11.50602569 0 0 Z " fill="#000000" transform="translate(759,1327)"/>
<path d="M0 0 C1.11246094 0.05542969 2.22492188 0.11085938 3.37109375 0.16796875 C13.04284921 0.76057342 21.93891036 2.58337258 31.1875 5.375 C31.85305908 5.5719043 32.51861816 5.76880859 33.2043457 5.97167969 C37.90540416 7.44225821 41.75324206 9.50869693 46 12 C47.15113281 12.48339844 48.30226563 12.96679688 49.48828125 13.46484375 C53.36346189 15.15888823 56.69676503 17.1981359 60.1875 19.5625 C60.83460938 19.99868652 61.48171875 20.43487305 62.1484375 20.88427734 C71.43384795 27.2440538 79.92212238 34.19084297 87 43 C87.60972656 43.69996094 88.21945312 44.39992188 88.84765625 45.12109375 C98.26097799 56.21870765 105.53643936 69.16648124 110 83 C110.35215576 84.08692139 110.70431152 85.17384277 111.06713867 86.29370117 C114.25693884 97.42762629 114.58372791 108.09075076 114.46655273 119.62841797 C114.43741323 122.75932337 114.44602621 125.88854593 114.45898438 129.01953125 C114.44900223 139.02864442 114.34865666 148.44738098 111 158 C110.76514893 158.73331543 110.53029785 159.46663086 110.28833008 160.22216797 C109.63648063 162.19146643 108.9310607 164.12617024 108.1875 166.0625 C107.92960693 166.73877441 107.67171387 167.41504883 107.40600586 168.11181641 C103.55395948 177.95762357 98.1812827 186.46090843 92 195 C91.34 195.99 90.68 196.98 90 198 C89.34 198 88.68 198 88 198 C87.73445313 198.58136719 87.46890625 199.16273438 87.1953125 199.76171875 C83.58621297 206.51993454 77.12382479 212.4951174 71 217 C70.34 217 69.68 217 69 217 C69 217.66 69 218.32 69 219 C59.02487975 227.50413478 46.42454815 234.04585363 34 238 C33.26652344 238.26296875 32.53304688 238.5259375 31.77734375 238.796875 C8.77263492 246.98003821 -15.80191166 247.22384655 -39 240 C-40.16402344 239.67386719 -41.32804687 239.34773438 -42.52734375 239.01171875 C-65.55180793 232.30380399 -86.18926381 218.45163311 -100.9609375 199.5859375 C-102.20754762 198.00498751 -103.47834278 196.44228156 -104.7890625 194.9140625 C-115.59652668 182.03393395 -125.19845224 160.89988519 -126.5625 144.125 C-126.61099667 141.26618348 -126.61099667 141.26618348 -128 139 C-128.10032859 136.99551051 -128.13081506 134.9874665 -128.1328125 132.98046875 C-128.13410156 131.72943359 -128.13539062 130.47839844 -128.13671875 129.18945312 C-128.13462402 128.53082275 -128.1325293 127.87219238 -128.13037109 127.19360352 C-128.12512421 125.2338926 -128.13078922 123.27416209 -128.13671875 121.31445312 C-128.12478191 109.5984451 -127.69122589 98.77436627 -124.125 87.5625 C-123.86847656 86.70462891 -123.61195312 85.84675781 -123.34765625 84.96289062 C-121.99520255 80.5759114 -120.50128123 76.88081795 -118 73 C-117.44992795 71.55244198 -116.92951191 70.09330779 -116.4375 68.625 C-110.10855619 52.551871 -97.45554878 39.95776808 -85.0625 28.375 C-84.53100342 27.87782471 -83.99950684 27.38064941 -83.4519043 26.8684082 C-80.46962362 24.14586694 -77.52313631 21.95967764 -74 20 C-72.89269531 19.33484375 -71.78539062 18.6696875 -70.64453125 17.984375 C-48.98148786 5.2197731 -25.39476263 -1.67113922 0 0 Z " fill="#000000" transform="translate(1847,1317)"/>
<path d="M0 0 C0.83176758 0.07105957 1.66353516 0.14211914 2.52050781 0.21533203 C24.51482299 2.23678374 43.83196282 8.14018933 62 21 C62.79277344 21.51433594 63.58554687 22.02867188 64.40234375 22.55859375 C76.98978464 31.05748241 89.25851666 42.89737862 97 56 C97.59941406 56.96292969 98.19882812 57.92585938 98.81640625 58.91796875 C102.56239005 65.08828445 105.54939869 71.22106391 108 78 C108.34933594 78.89589844 108.69867188 79.79179688 109.05859375 80.71484375 C109.41050781 81.63394531 109.76242187 82.55304688 110.125 83.5 C110.59292969 84.72203125 110.59292969 84.72203125 111.0703125 85.96875 C113.51434455 93.93752675 114.30121479 101.59806987 114.265625 109.90625 C114.26753845 110.9115979 114.2694519 111.9169458 114.27142334 112.95275879 C114.27277531 115.06372327 114.26914848 117.17469635 114.26074219 119.28564453 C114.25002873 122.49140341 114.26067149 125.69660201 114.2734375 128.90234375 C114.27211573 130.96614705 114.26955298 133.02995001 114.265625 135.09375 C114.26967346 136.03883423 114.27372192 136.98391846 114.27789307 137.9576416 C114.2136555 147.20908184 112.49871735 155.46377757 109 164 C108.7009375 164.79277344 108.401875 165.58554688 108.09375 166.40234375 C105.85787524 172.25348375 103.16422962 177.60219653 100 183 C99.58234375 183.76828125 99.1646875 184.5365625 98.734375 185.328125 C83.52203176 212.4305756 55.65371934 231.99247651 26.15185547 240.53515625 C17.84388447 242.85611323 9.65502387 244.72504758 1 245 C-0.16015625 245.03996094 -1.3203125 245.07992188 -2.515625 245.12109375 C-19.69551338 245.42156505 -38.49578853 242.85106878 -54 235 C-55.155 234.525625 -56.31 234.05125 -57.5 233.5625 C-70.8296999 227.61174112 -81.52567065 218.98334516 -92 209 C-92.66 208.39285156 -93.32 207.78570313 -94 207.16015625 C-115.04658722 187.23410492 -127.24938656 157.39538705 -128.29296875 128.76953125 C-128.53194943 116.78960258 -127.82089291 105.65028771 -125 94 C-124.70820644 92.45835735 -124.41652038 90.91669433 -124.125 89.375 C-119.31667978 68.72287055 -107.33675418 49.55025397 -92 35 C-91.51402344 34.48179688 -91.02804688 33.96359375 -90.52734375 33.4296875 C-80.66642732 23.03259831 -67.39807083 14.11789662 -54 9 C-53.00484375 8.60039063 -52.0096875 8.20078125 -50.984375 7.7890625 C-35.20837399 1.95264957 -16.79515364 -1.43806284 0 0 Z " fill="#000000" transform="translate(230,1317)"/>
<path d="M0 0 C1.01320313 0.43957031 2.02640625 0.87914062 3.0703125 1.33203125 C21.64589319 9.92633325 37.84025961 23.63333521 50 40 C50.69867187 40.87011719 51.39734375 41.74023438 52.1171875 42.63671875 C55.30628805 46.63963541 57.59798075 51.00116153 59.83203125 55.59765625 C60.68192116 57.34575758 61.55791434 59.08124099 62.44921875 60.80859375 C70.28858278 76.62554737 71.65904852 91.98110832 71.52148438 109.39355469 C71.49998197 112.62771144 71.52142513 115.85965893 71.546875 119.09375 C71.56234322 130.7115491 70.88056662 140.99404513 67 152 C66.38596313 153.78567383 66.38596313 153.78567383 65.75952148 155.60742188 C63.61042683 161.67871834 60.98958429 167.15760468 57.52734375 172.5859375 C56.33723942 174.46697197 55.23584091 176.40422397 54.171875 178.359375 C51.96452026 182.24536424 49.25384483 185.52489959 46.3125 188.875 C45.52673584 189.77919678 45.52673584 189.77919678 44.72509766 190.70166016 C35.62988543 201.07601638 35.62988543 201.07601638 31 205 C30.34 205 29.68 205 29 205 C28.67 205.99 28.34 206.98 28 208 C3.88031709 227.85517624 -28.90527526 237.23899922 -59.734375 234.69140625 C-85.43138672 231.62836582 -114.27027883 221.87877828 -132 202 C-132.33 201.01 -132.66 200.02 -133 199 C-134.32925431 198.32523692 -135.66337112 197.66003444 -137 197 C-143.52722362 190.83472963 -148.46605016 183.69938463 -153 176 C-153.56654297 175.04287109 -153.56654297 175.04287109 -154.14453125 174.06640625 C-155.11673665 172.3892551 -156.05855148 170.69460734 -157 169 C-157.38800781 168.36191406 -157.77601562 167.72382812 -158.17578125 167.06640625 C-174.13042474 140.14603255 -173.72783665 106.23909773 -166.44873047 76.76806641 C-158.50432856 47.25521679 -135.99896011 21.21714448 -110 6 C-108.55947266 5.12214844 -108.55947266 5.12214844 -107.08984375 4.2265625 C-75.65467334 -13.97483832 -32.81201616 -15.04199817 0 0 Z " fill="#000000" transform="translate(1408,1327)"/>
<path d="M0 0 C6.77532094 4.87720967 12.58293377 9.8808737 17 17 C17.87785156 18.34771484 17.87785156 18.34771484 18.7734375 19.72265625 C27.9965533 35.11397397 29.88281319 52.49361805 25.8359375 69.7578125 C21.20803354 87.70715962 10.62094932 101.80224747 -5.1875 111.4375 C-19.65246408 119.74582879 -36.69435444 122.93779194 -53.0625 118.6875 C-54.71750131 118.15257545 -56.36454839 117.59200645 -58 117 C-58.74894531 116.74863281 -59.49789062 116.49726562 -60.26953125 116.23828125 C-64.14760703 114.8784365 -67.52154516 113.16228274 -71 111 C-71.75152344 110.74347656 -72.50304688 110.48695312 -73.27734375 110.22265625 C-76.68039571 108.69445644 -79.17764865 106.51626015 -81.875 104 C-82.4016626 103.51160645 -82.9283252 103.02321289 -83.47094727 102.52001953 C-88.06961536 98.13986419 -91.68744376 93.42297513 -95 88 C-95.45890625 87.30777344 -95.9178125 86.61554688 -96.390625 85.90234375 C-104.73998006 72.44781075 -106.30192755 54.7416884 -103.17578125 39.3984375 C-102.11857835 35.08184032 -100.61675741 31.05582239 -98.8125 27 C-98.50425293 26.30575928 -98.19600586 25.61151855 -97.87841797 24.89624023 C-95.2877979 19.26523051 -92.23664564 14.5511183 -88 10 C-87.24074219 9.17371094 -86.48148438 8.34742188 -85.69921875 7.49609375 C-79.09763606 0.59198354 -79.09763606 0.59198354 -75 0 C-75 -0.66 -75 -1.32 -75 -2 C-50.53321363 -16.12701424 -23.52512797 -15.74845652 0 0 Z " fill="#060605" transform="translate(2452,1045)"/>
<path d="M0 0 C1.22644557 0.00138269 1.22644557 0.00138269 2.47766781 0.00279331 C3.88068645 0.00073132 3.88068645 0.00073132 5.31204891 -0.00137234 C6.34638561 0.00222294 7.38072231 0.00581821 8.44640255 0.00952244 C9.52919491 0.00937641 10.61198727 0.00923038 11.72759151 0.00907993 C15.32585778 0.0097796 18.92407301 0.0175745 22.52233028 0.02539158 C25.00954822 0.02725557 27.49676652 0.02867956 29.98398495 0.0296793 C35.87363594 0.03311433 41.76326794 0.04100506 47.65291113 0.05102879 C56.18881386 0.06524211 64.72472284 0.07050046 73.26063442 0.07683659 C85.2215796 0.08654922 97.18247651 0.10570474 109.14342403 0.12304783 C109.14342403 32.79304783 109.14342403 65.46304783 109.14342403 99.12304783 C81.4817152 99.16315664 81.4817152 99.16315664 69.73522091 99.17187595 C61.70453383 99.17786519 53.67385802 99.18481967 45.64317989 99.19848728 C39.17228667 99.20931348 32.70140561 99.21532409 26.23050404 99.21792507 C23.75563458 99.21977981 21.28076583 99.22340133 18.80590153 99.22877789 C15.35272031 99.23598476 11.89959002 99.23703892 8.44640255 99.23657322 C7.41206585 99.2401685 6.37772915 99.24376377 5.31204891 99.24746799 C4.37670315 99.24609333 3.44135738 99.24471867 2.47766781 99.24330235 C1.66003743 99.24422414 0.84240705 99.24514593 0 99.24609566 C-1.85657597 99.12304783 -1.85657597 99.12304783 -2.85657597 98.12304783 C-2.95720343 95.11491296 -2.99272336 92.12969754 -2.9859705 89.1210947 C-2.98772282 88.17645863 -2.98947514 87.23182255 -2.99128056 86.25856113 C-2.99570077 83.11962163 -2.99276049 79.98073796 -2.98938847 76.84179783 C-2.99006146 74.67085859 -2.99103144 72.49991943 -2.99228764 70.32898045 C-2.99376484 65.77253599 -2.99160933 61.21611111 -2.98694706 56.65966892 C-2.98124976 50.80478197 -2.98452865 44.94994085 -2.99051952 39.09505558 C-2.99412453 34.61024725 -2.99298683 30.12544987 -2.99039173 25.64064121 C-2.98972229 23.48116647 -2.99055146 21.32169074 -2.99287128 19.16221714 C-2.99539682 16.14978475 -2.99155861 13.1374277 -2.9859705 10.12500095 C-2.98799473 9.22314564 -2.99001896 8.32129032 -2.99210453 7.39210606 C-2.96724258 0.19665921 -2.96724258 0.19665921 0 0 Z " fill="#FDFDFC" transform="translate(986.8565759658813,1083.8769521713257)"/>
<path d="M0 0 C6.77532094 4.87720967 12.58293377 9.8808737 17 17 C17.87785156 18.34771484 17.87785156 18.34771484 18.7734375 19.72265625 C27.9965533 35.11397397 29.88281319 52.49361805 25.8359375 69.7578125 C21.20803354 87.70715962 10.62094932 101.80224747 -5.1875 111.4375 C-19.65246408 119.74582879 -36.69435444 122.93779194 -53.0625 118.6875 C-54.71750131 118.15257545 -56.36454839 117.59200645 -58 117 C-58.74894531 116.74863281 -59.49789062 116.49726562 -60.26953125 116.23828125 C-64.14760703 114.8784365 -67.52154516 113.16228274 -71 111 C-71.75152344 110.74347656 -72.50304688 110.48695312 -73.27734375 110.22265625 C-76.68039571 108.69445644 -79.17764865 106.51626015 -81.875 104 C-82.4016626 103.51160645 -82.9283252 103.02321289 -83.47094727 102.52001953 C-88.06961536 98.13986419 -91.68744376 93.42297513 -95 88 C-95.45890625 87.30777344 -95.9178125 86.61554688 -96.390625 85.90234375 C-104.73998006 72.44781075 -106.30192755 54.7416884 -103.17578125 39.3984375 C-102.11857835 35.08184032 -100.61675741 31.05582239 -98.8125 27 C-98.50425293 26.30575928 -98.19600586 25.61151855 -97.87841797 24.89624023 C-95.2877979 19.26523051 -92.23664564 14.5511183 -88 10 C-87.24074219 9.17371094 -86.48148438 8.34742188 -85.69921875 7.49609375 C-79.09763606 0.59198354 -79.09763606 0.59198354 -75 0 C-75 -0.66 -75 -1.32 -75 -2 C-50.53321363 -16.12701424 -23.52512797 -15.74845652 0 0 Z M-80.23046875 19.3828125 C-88.8699612 29.46492189 -92.17740187 40.12993435 -92.25 53.125 C-92.270625 54.02476563 -92.29125 54.92453125 -92.3125 55.8515625 C-92.40047329 71.15891558 -85.37163524 83.63552969 -74.84765625 94.3359375 C-70.85299783 98.07305279 -66.95507309 100.70917635 -62 103 C-60.48019531 103.72509766 -60.48019531 103.72509766 -58.9296875 104.46484375 C-46.92451548 109.4925318 -33.8819126 110.02407423 -21.5 105.9375 C-5.78537156 99.40650774 6.34077325 88.82341404 13 73 C17.48095089 59.27982463 17.38516436 44.09465452 11 31 C2.73077616 15.20694714 -8.30450542 6.62811922 -25 1 C-46.26074615 -4.63783364 -65.8247837 3.9932015 -80.23046875 19.3828125 Z " fill="#F6F5F5" transform="translate(2452,1045)"/>
<path d="M0 0 C42.50301205 0 42.50301205 0 49.48046875 6.30859375 C54.0322153 11.37519081 55.75419792 15.58794041 55.44921875 22.5078125 C54.45110899 28.04515185 51.14885254 32.15161723 47.125 35.9375 C43.62923117 38.24470743 41.14453472 38.75132792 37 39 C37.4125 39.46148438 37.825 39.92296875 38.25 40.3984375 C55.16945107 59.50835322 55.16945107 59.50835322 59 71 C54.1752079 71.67086295 49.80340277 71.91518008 45 71 C41.27084889 67.9144004 39.22004316 64.25776394 37 60 C36.48695313 59.05898437 35.97390625 58.11796875 35.4453125 57.1484375 C33.7032797 53.8120018 32.19072167 50.57216501 31 47 C27.5020281 44.6622465 23.28074429 43.90399665 19.25 42.875 C16.8575 42.25625 14.465 41.6375 12 41 C12 50.9 12 60.8 12 71 C8.04 71 4.08 71 0 71 C0 47.57 0 24.14 0 0 Z " fill="#F8F8F7" transform="translate(2385,1064)"/>
<path d="M0 0 C21.74281666 -0.36542549 21.74281666 -0.36542549 26.68359375 3.22265625 C29.34818506 5.93057425 29.99284451 7.79606847 30.125 11.5625 C28.8000407 15.61098676 27.32364626 17.37200063 24 20 C21.04309787 20.99090963 18.33878211 21.1175563 15.234375 21.09765625 C14.03119629 21.09390991 14.03119629 21.09390991 12.80371094 21.09008789 C11.79598633 21.08098389 10.78826172 21.07187988 9.75 21.0625 C6.5325 21.041875 3.315 21.02125 0 21 C0 14.07 0 7.14 0 0 Z " fill="#090908" transform="translate(2397,1074)"/>
<path d="M0 0 C0.66 0.33 1.32 0.66 2 1 C-4.93 7.93 -11.86 14.86 -19 22 C-19 17.63604688 -16.29697402 15.68537662 -13.4375 12.6875 C-12.8919043 12.10589111 -12.34630859 11.52428223 -11.78417969 10.92504883 C-8.06375023 7.00117561 -4.23602964 3.36956903 0 0 Z " fill="#292827" transform="translate(1283,1343)"/>
<path d="M0 0 C0.66 0.33 1.32 0.66 2 1 C-5.26 8.26 -12.52 15.52 -20 23 C-20 20 -20 20 -18.609375 18.3515625 C-17.99578125 17.78179688 -17.3821875 17.21203125 -16.75 16.625 C-14.51190397 14.49541771 -12.60933345 12.5037479 -10.6875 10.0625 C-9.8521875 9.0415625 -9.8521875 9.0415625 -9 8 C-8.34 8 -7.68 8 -7 8 C-6.67 7.01 -6.34 6.02 -6 5 C-4.12382302 3.15500602 -2.07262391 1.6316401 0 0 Z " fill="#D7D5D4" transform="translate(562,1271)"/>
<path d="M0 0 C0.66 0.33 1.32 0.66 2 1 C-5.26 8.26 -12.52 15.52 -20 23 C-20.66 22.67 -21.32 22.34 -22 22 C-14.66666667 14.66666667 -7.33333333 7.33333333 0 0 Z " fill="#E0DEDC" transform="translate(1693,1271)"/>
<path d="M0 0 C0 3 0 3 -1.74414062 5.0847168 C-2.54013672 5.86500244 -3.33613281 6.64528809 -4.15625 7.44921875 C-5.01347656 8.29677734 -5.87070313 9.14433594 -6.75390625 10.01757812 C-7.66011719 10.89865234 -8.56632812 11.77972656 -9.5 12.6875 C-10.40621094 13.58017578 -11.31242187 14.47285156 -12.24609375 15.39257812 C-14.49085168 17.60189251 -16.74229998 19.80392533 -19 22 C-19.66 21.67 -20.32 21.34 -21 21 C-14.63570899 13.94624413 -8.3566237 7.04654003 -1 1 C-0.67 0.67 -0.34 0.34 0 0 Z " fill="#D9D7D5" transform="translate(77,1270)"/>
<path d="M0 0 C0.66 0.33 1.32 0.66 2 1 C-2.95 5.95 -7.9 10.9 -13 16 C-13.66 15.67 -14.32 15.34 -15 15 C-10.3143947 9.52331848 -5.59753384 4.54799625 0 0 Z " fill="#D8D7D5" transform="translate(2170,1248)"/>
<path d="M0 0 C0.66 0.33 1.32 0.66 2 1 C-1.63 4.63 -5.26 8.26 -9 12 C-9.66 11.67 -10.32 11.34 -11 11 C-9.54540569 9.35086118 -8.08620743 7.70578218 -6.625 6.0625 C-5.81289062 5.14597656 -5.00078125 4.22945312 -4.1640625 3.28515625 C-2 1 -2 1 0 0 Z " fill="#292827" transform="translate(2249,1306)"/>
<path d="M0 0 C-0.66666667 2 -1.33333333 4 -2 6 C-3.37562854 4.71034824 -4.70766393 3.37310707 -6 2 C-6 1.34 -6 0.68 -6 0 C-2.25 -1.125 -2.25 -1.125 0 0 Z " fill="#42413F" transform="translate(2428,1103)"/>
</svg>
